/* XPM */
static char *result[] = {
/* columns rows colors chars-per-pixel */
"16 16 4 1 ",
"  c #B86F50",
". c #E4A672",
"X c #EAD4AA",
"o c None",
/* pixels */
"oooooooooooooooo",
"oooooooooooooooo",
"oooooooooooooooo",
"oooooooooooooooo",
"oooooo    oooooo",
"ooooo  ..  ooooo",
"oooo  .XX.  oooo",
"oooo .XXXX. oooo",
"oooo .XXXX. oooo",
"oooo  .XX.  oooo",
"oooo   ..   oooo",
"ooooo      ooooo",
"oooooo    oooooo",
"oooooooooooooooo",
"oooooooooooooooo",
"oooooooooooooooo"
};
