/* XPM */
static char *result[] = {
/* columns rows colors chars-per-pixel */
"68 64 215 2 ",
"   c #312813",
".  c #2A2239",
"X  c #4D421A",
"o  c #6F5A13",
"O  c #6D6316",
"+  c #6E5837",
"@  c #7A6F34",
"#  c #7E7726",
"$  c #0F0E43",
"%  c #2A2654",
"&  c #533C58",
"*  c #423673",
"=  c #534B5E",
"-  c #826C16",
";  c #876242",
":  c #837962",
">  c #AB7E75",
",  c #A18A14",
"<  c #9E943E",
"1  c #AF9B32",
"2  c #C1AB2D",
"3  c #C7B13F",
"4  c #A68D41",
"5  c #B39049",
"6  c #B0A265",
"7  c #D99F5D",
"8  c #C1AE42",
"9  c #CFA24A",
"0  c #C3B34B",
"q  c #D6BD49",
"w  c #D2BD50",
"e  c #E3B14F",
"r  c #E39D64",
"t  c #E39D6A",
"y  c #E09568",
"u  c #E19D72",
"i  c #E4A36D",
"p  c #E9A56E",
"a  c #E7AE6F",
"s  c #E8AE6F",
"d  c #EDBF6F",
"f  c #ECB463",
"g  c #E5A572",
"h  c #EBA773",
"j  c #E6AA73",
"k  c #EBAA75",
"l  c #E1A47D",
"z  c #E5AB7A",
"x  c #ECAC7B",
"c  c #F1AC75",
"v  c #F1AE79",
"b  c #ECB373",
"n  c #EBBD74",
"m  c #ECB27D",
"M  c #EDBB7B",
"N  c #E7B478",
"B  c #F3B576",
"V  c #F5B877",
"C  c #F3B37B",
"Z  c #FAB57C",
"A  c #F5BB7C",
"S  c #FBB97E",
"D  c #DBC54D",
"F  c #DFCC57",
"G  c #D3C152",
"H  c #F3C953",
"J  c #ECD957",
"K  c #EDD95A",
"L  c #EDD757",
"P  c #F7D45F",
"I  c #F3DD5C",
"U  c #FADB56",
"Y  c #E3C84E",
"T  c #FEE64C",
"R  c #FFEA4E",
"E  c #FEE555",
"W  c #FFEA56",
"Q  c #FEE65E",
"!  c #FFE95C",
"~  c #D7C466",
"^  c #EFC167",
"/  c #EEC16A",
"(  c #FACB6B",
")  c #F5D364",
"_  c #F4D26D",
"`  c #F6D96F",
"'  c #FBDD6D",
"]  c #FADA63",
"[  c #EEC271",
"{  c #EFCC7E",
"}  c #FBCB75",
"|  c #F1C27C",
" . c #F0CD7D",
".. c #FCCC79",
"X. c #F9C67C",
"o. c #FDDB74",
"O. c #F7DD79",
"+. c #FADF7B",
"@. c #F4D270",
"#. c #FEE761",
"$. c #FEEA62",
"%. c #FCE66B",
"&. c #FEE96A",
"*. c #F4E06C",
"=. c #FBE574",
"-. c #FEEA75",
";. c #F9E47C",
":. c #FCEA79",
">. c #F7E07F",
",. c #5C588F",
"<. c #7E7B9F",
"1. c #A98A9B",
"2. c #A29EA2",
"3. c #B6A9BF",
"4. c #CEAF8F",
"5. c #E2AC83",
"6. c #E2AE8A",
"7. c #EBAE81",
"8. c #E5B184",
"9. c #ECB484",
"0. c #E9BB83",
"q. c #E5B48C",
"w. c #EAB58A",
"e. c #E6B98C",
"r. c #EABB8C",
"t. c #E7B986",
"y. c #F3B681",
"u. c #F4BA83",
"i. c #FABB84",
"p. c #F2BA8B",
"a. c #F8BB8A",
"s. c #E3B795",
"d. c #E5B995",
"f. c #E6BF9B",
"g. c #EBBB94",
"h. c #F0BE92",
"j. c #DDB7B1",
"k. c #ECCB8E",
"l. c #EEC28B",
"z. c #F5C387",
"x. c #F3CE81",
"c. c #FDCC82",
"v. c #F3C38C",
"b. c #FCCB8D",
"n. c #FCC18C",
"m. c #EFD38C",
"M. c #E0D083",
"N. c #F5D181",
"B. c #F9D482",
"V. c #F5DD83",
"C. c #FADC84",
"Z. c #F3D68E",
"A. c #F5DC8A",
"S. c #EAC494",
"D. c #EACB97",
"F. c #E6C19C",
"G. c #E9C49B",
"H. c #EBCA9B",
"J. c #F5C494",
"K. c #FAC291",
"L. c #F3CC94",
"P. c #FAC895",
"I. c #F2CB9D",
"U. c #FACA9B",
"Y. c #F2C19A",
"T. c #EDD296",
"R. c #EFD997",
"E. c #ECD19A",
"W. c #EFD99F",
"Q. c #F3D692",
"!. c #FBD595",
"~. c #F2DB95",
"^. c #F2D39A",
"/. c #F2DB9A",
"(. c #F9DA9E",
"). c #F9DB97",
"_. c #F7E184",
"`. c #F9E481",
"'. c #F7E489",
"]. c #F8E389",
"[. c #FDEB8A",
"{. c #FBE880",
"}. c #EFE19F",
"|. c #F4E194",
" X c #F3E19A",
".X c #EACBA4",
"XX c #E8CDAB",
"oX c #E9C7A3",
"OX c #F1CDA3",
"+X c #F0C7A0",
"@X c #ECD3A3",
"#X c #EEDAA2",
"$X c #EBD3AB",
"%X c #EEDCA9",
"&X c #F6D1A1",
"*X c #F0DCA1",
"=X c #F7D4A8",
"-X c #F2CEB5",
";X c #FCECA9",
":X c #FFF3A1",
">X c #FEF3AF",
",X c #FFF4B0",
"<X c #C4C1D2",
"1X c LightGray",
"2X c #E2DCC0",
"3X c #E5D4D8",
"4X c #FFECC7",
"5X c #FFF8C3",
"6X c #FFFAD8",
"7X c #F4F1D5",
"8X c #FAE8DC",
"9X c #F0F0ED",
"0X c #FDFAF0",
"qX c #EBE7ED",
"wX c None",
/* pixels */
"wXwXwXwXwXwXwXwXwXwXwXwXwXwXwXwXwXwXwXwXwXwXwXwXi t i v k u u u u u g h c h p t wXwXwXwXwXwXwXwXwXwXwXwXwXwXwXwXwXwXwXwXwXwXwXwXwXwXwXwX",
"wXwXwXwXwXwXwXwXwXwXwXwXwXwXwXwXwXwXwXwXwXwXwXwXi g h v k z g g g g z k C c g i wXwXwXwXwXwXwXwXwXwXwXwXwXwXwXwXwXwXwXwXwXwXwXwXwXwXwXwX",
"wXwXwXwXwXwXwXwXwXwXwXwXwXwXwXwXwXwXwXwXwXwXwXwXz z m A m a a a j b b b A 9.x z wXwXwXwXwXwXwXwXwXwXwXwXwXwXwXwXwXwXwXwXwXwXwXwXwXwXwXwX",
"wXwXwXwXwXwXwXwXwXwXwXwXwXwXwXwXwXwXwXwXwXwXwX5.q.q.e.z.| / ^ d / / n | v.r.q.q.6.wXwXwXwXwXwXwXwXwXwXwXwXwXwXwXwXwXwXwXwXwXwXwXwXwXwXwX",
"wXwXwXwXwXwXwXwXwXwXwXwXwXwXwXwXwXt p t t u l 6.s.F.H.D. .@.) P ) ) @.N.Q.G.F.s.s.l u y t t t wXwXwXwXwXwXwXwXwXwXwXwXwXwXwXwXwXwXwXwXwX",
"wXwXwXwXwXwXwXwXwXwXwXwXwXwXwXwXg j c c h h x r.F.oX@X~.C.%.#.W E #.*._./.@X.XF.w.z h h c c k g wXwXwXwXwXwXwXwXwXwXwXwXwXwXwXwXwXwXwXwX",
"wXwXwXwXwXwXwXwXwXwXwXwXwXwXwXwXz x i.i.B C M r.D.@X#X|._.%.! W W Q &.{.|.*X@XH.l.M B Z S i.9.k wXwXwXwXwXwXwXwXwXwXwXwXwXwXwXwXwXwXwXwX",
"wXwXwXwXwXwXwXwXwXwXwXwXwXwXwXz 8.r.P.b.c.} } B.Q.~.|.'.:.$.! ! W ! &.:.[.|.~.A.N.} } c.b.P.h.q.z wXwXwXwXwXwXwXwXwXwXwXwXwXwXwXwXwXwXwX",
"wXwXwXwXwXwXwXwXwXwXwXwXwXr j w.d.G.&X!.C.o.' o.;.`.`.:.-.$.W $.$.$.$.-.:.{.`.;.o.o.o.B.!.^.+Xg.5.z t wXwXwXwXwXwXwXwXwXwXwXwXwXwXwXwXwX",
"wXwXwXwXwXwXwXwXwXwXwXwXr i x r.G..X=X/.C.=.#.#.&.*.&.*.$.$.$.$.$.$.$.$.&.&.%.#.#.#.%.C.~.%X.XG.r.m i r wXwXwXwXwXwXwXwXwXwXwXwXwXwXwXwX",
"wXwXwXwXwXwXwXwXwXwXwXwXg z p.P.^.@X*X|.>.%.! ! E Q Q ! $.$.$.I I I ! I U I U E ! ! %.`.|.W.*X.XP.p.x g wXwXwXwXwXwXwXwXwXwXwXwXwXwXwXwX",
"wXwXwXwXwXwXwXwXwXwXwX5.5.e.P.(.(./.|.'.:.$.! ! E ! ! ! ! $.! K F G G G Y H U U E ! &.:.'.)./.(.(.U.r.5.5.wXwXwXwXwXwXwXwXwXwXwXwXwXwXwX",
"wXwXwXwXwXwXwXwXwXi z 6.e.S.^./.~.].;.=.%.$.! ! ! ! Q ! $.$.I F 0 < 4 5 9 q H H U Q $.&.:.;.'.).(.&XF.s.8.z i wXwXwXwXwXwXwXwXwXwXwXwXwX",
"wXwXwXwXwXwXwXwXi g x r.F..X@X/.'.=.%.$.$.#.#.#.Q $.$.$.$.$.I G < @ + ; 5 7 f ^ ] ] ! $.$.&.=._./.=X.XF.e.x g t wXwXwXwXwXwXwXwXwXwXwXwX",
"wXwXwXwXwXwXwXwXi p y.J.OX$X*X X`.%.! W ! Q #.#.Q $.$.$.$.$.J 0 # X . = > 6.w.n.o.%.! W W ! &.>.|.*X@X^.P.0.g t wXwXwXwXwXwXwXwXwXwXwXwX",
"wXwXwXwXwXwXwXwXi c i.&X=X$X%X X`.$.W R W ! ! Q Q $.$.$.$.$.J 8 O   $ * 1.j.-X=XA.=.! T R W #.=.].|./.!.b.u.g t wXwXwXwXwXwXwXwXwXwXwXwX",
"wXwXwXwXwXwXwXwXi i 9.U.=X$X%X X'.&.W R W E ! ! Q #.$.$.$.$.J 8 O   % ,.3.3X8X4X;X-.W T T ! #.-.:.;.].B.c.A t y wXwXwXwXwXwXwXwXwXwXwXwX",
"wXwXwXwXwXwXwXwXi i m J.OX$X#X|.`.&.! E W ! Q Q #.#.#.$.$.$.J 3 - X = <.<XqX0X6X>X:.E T T Q #.#.&.&.' o...V g u wXwXwXwXwXwXwXwXwXwXwXwX",
"wXwXwXwXwXwXwXwXi i m J.I..X@XR.V.' Q Q #.&.%.&.#.#.$.$.$.$.I q , - : 2.1X9X0X6X>X:.E T T ! $.! ! ! #.' ..A l 5.wXwXwXwXwXwXwXwXwXwXwXwX",
"wXwXwXwXwXwXwXwXi i m p.g.S.S.k.{ _ _ ` O.>.>.;.%.#.! ! $.$.Q D 2 1 6 4.2X7X6X5X:X-.W E E #.#.! ! E #.o.B.v.q.6.6.wXwXwXwXwXwXwXwXwXwXwX",
"wXwXwXwXwXwXwXwXi g x u.9.e.t.M n [ [ { m.R.|.'.=.$.! W ! $.I L Y G ~ M.}.;X,X:X[.&.$.! ! Q Q ! W ! #.+.Q.H.f.s.q.z i wXwXwXwXwXwXwXwXwX",
"wXwXwXwXwXwXwXwXg g k C m z z z j a N e.D.@XW.R.;.%.! W ! #.Q Q Q K ] *.=.:.:.-.&.$.Q Q $.#.Q Q W ! %.>./.#X.XI.h.m g i wXwXwXwXwXwXwXwX",
"wXwXwXwXwXwXwXwXg g k C v p p i i g z q.f..X@XR.V.=.%.#.Q #.#.$.$.$.$.! E E E E Q $.#.#.#.#.Q ! ! Q %.>.|.*X#XOXP.y.g t wXwXwXwXwXwXwXwX",
"wXwXwXwXwXwXwXwXh j C S B c c h h h x 8.s.F.H.T.Q.V.>.=.%.#.$.$.$.$.$.! W T T E E Q #.#.#.#.#.Q ! ! %.;.].|./.!.P.C h i wXwXwXwXwXwXwXwX",
"wXwXwXwXwXwXwXwXh j C S Z B c c c v v 7.8.w.r.D.T.R.Z.'.=.%.Q ! $.$.Q ! E W R E ! Q #.#.#.#.Q $.Q #.$.=.:.`.C.B.B.C z t wXwXwXwXwXwXwXwX",
"wXwXwXwXwXwXwXwXg g v S Z k j k k k x k j h z e.G.@XW.~._.%.Q ! $.$.$.Q ! Q Q Q Q #.#.#.$.#.#.#.#.$.#.$.&.&.o.o...b g u wXwXwXwXwXwXwXwX",
"wXwXwXwXwXwXwXwXg g k C x k h z k j h i i i x q.G.XX#XR._.%.Q W W ! $.$.#.#.$.#.#.#.#.$.#.#.#.#.#.#.$.! ! ! #.] } b g u wXwXwXwXwXwXwXwX",
"wXwXwXwXwXwXwXwXwXg g h j i j j j g g t r i z w.oXXX$X}.'.%.Q ! $.! $.$.#.#.#.$.Q #.#.#.#.#.#.#.#.#.$.! W W Q ] ( B g u wXwXwXwXwXwXwXwX",
"wXwXwXwXwXwXwXwXwXwXwXwXwXwXwXwXwXwXwXr r i j g.oXXX$X/._.%.Q W ! $.#.#.#.#.#.#.#.#.#.#.#.#.#.#.#.#.Q ! ! W ! ] ( b g u wXwXwXwXwXwXwXwX",
"wXwXwXwXwXwXwXwXwXwXwXwXwXwXwXwXwXwXwXwXr p m h.OXXX%X~._.%.Q W ! Q #.#.#.#.#.$.#.Q #.#.#.#.#.#.$.#.$.! ! ! Q ] } b u u wXwXwXwXwXwXwXwX",
"wXwXwXwXwXwXwXwXwXwXwXwXwXwXwXwXwXwXwXwXj m 9.J.I.@XW.~._.%.Q ! Q Q #.#.#.#.#.#.#.$.#.#.$.#.#.! #.#.#.&.#.%.=.o...b g u wXwXwXwXwXwXwXwX",
"wXwXwXwXwXwXwXwXwXwXwXwXwXwXwXwXwXwXwX5.6.w.J.L.^.~.~._.;.&.Q ! Q #.#.#.$.#.#.Q #.#.#.#.#.#.#.#.Q ! %.%.:._.V.B...m g u wXwXwXwXwXwXwXwX",
"wXwXwXwXwXwXwXwXwXg g i i t r t y u l 6.s.F..XR.~.V.>.=.%.#.#.Q Q $.Q #.#.#.#.#.#.#.$.#.#.#.#.Q ! Q %.;.'.|.~.Q.b.x i t wXwXwXwXwXwXwXwX",
"wXwXwXwXwXwXwXwXg a z x k j h j h g x d.G..X@X~.C.=.%.#.$.#.#.#.#.#.$.#.#.#.#.$.Q #.#.#.#.#.$.Q ! Q %.;.~.#X@XI.J.m i i wXwXwXwXwXwXwXwX",
"wXwXwXwXwXwXwXwXj j C i.i.y.Z C B V A v.H.#X#X|.`.#.! W ! #.#.#.#.#.#.#.#.#.#.#.#.#.$.#.#.! #.Q ! Q %.V.Q.@XXX+XJ.m g i wXwXwXwXwXwXwXwX",
"wXwXwXwXwXwXwXwXh j Z n.n.J.v.n.X.} ..B.Q./.).].;.$.E W ! Q $.#.#.#.#.#.#.#.#.Q #.#.#.#.#.#.! ! W ! #.O.Z.H.f.h.a.9.h i wXwXwXwXwXwXwXwX",
"wXwXwXwXwXwXwXwXi h C K.J.+XU.Q.B.o.' o.O.>._.:.%.$.Q ! ! #.#.#.#.#.Q $.$.#.#.#.#.Q #.#.#.#.! ! W W #.` x.e.w.h.a.Z k j wXwXwXwXwXwXwXwX",
"wXwXwXwXwXwXwXwXi i m J.I..X*X~.C.' #.#.%.%.%.#.$.#.Q #.Q #.#.#.#.#.#.#.#.#.#.#.#.#.#.#.#.#.#.$.! ! #.) [ N l 7.y.k z g wXwXwXwXwXwXwXwX",
"wXwXwXwXwXwXwXwXi g m J.OX$X#X X`.%.! E ! ! Q ! Q #.#.#.#.Q #.#.#.#.#.#.#.#.Q $.#.#.#.Q #.$.$.$.&.%.' _ / a g g k h g g wXwXwXwXwXwXwXwX",
"wXwXwXwXwXwXwXwXi i 7.J.XX$X%X X`.&.W R W W ! Q Q #.$.#.$.#.#.#.$.#.#.#.#.#.#.#.#.#.#.! ! ! $.%.:.`.A. .| k t i g g g wXwXwXwXwXwXwXwXwX",
"wXwXwXwXwXwXwXwXi i m J.OX$X#X X`.&.W R W W ! ! #.#.#.#.#.#.#.#.Q #.#.#.#.#.$.#.#.#.Q ! E ! #.=.'.~.~.L.z.m i t t wXwXwXwXwXwXwXwXwXwXwX",
"wXwXwXwXwXwXwXwXi i x J.OX$X%X X_.&.E W ! ! $.#.#.#.#.#.Q $.#.#.#.#.#.#.#.#.#.#.#.#.Q ! W E %.;.|.#X@XI.v.9.i t wXwXwXwXwXwXwXwXwXwXwXwX",
"wXwXwXwXwXwXwXwXi p C K.I..X@XR.V.;.&.Q $.#.Q $.$.Q Q Q #.#.#.#.#.#.$.Q #.Q #.! Q $.$.#.#.&.=.A./.@X.X+XK.y.i i wXwXwXwXwXwXwXwXwXwXwXwX",
"wXwXwXwXwXwXwXwXi g 9.a.Y.S.S.T.Z._.>.:.%.$.! ! ! ! ! Q Q #.$.#.#.#.#.Q ! Q Q Q ! $.$.%.:.;.A.Q.T.H.G.h.K.y.g i wXwXwXwXwXwXwXwXwXwXwXwX",
"wXwXwXwXwXwXwXwXh j C i.p.t.e.D.E.R.|.'.:.&.! ! W ! ! ! Q #.$.#.$.#.#.! ! ! W W ! ! &.:.'.|.R.T.S.d.e.u.a.i.h i wXwXwXwXwXwXwXwXwXwXwXwX",
"wXwXwXwXwXwXwXwXg k v i.C z N r.H.E.W.|.`.%.Q W ! Q ! Q #.#.#.#.#.#.#.Q ! Q ! E ! ! &.`.|.W.@XH.e.t.x x i.C g i wXwXwXwXwXwXwXwXwXwXwXwX",
"wXwXwXwXwXwXwXwXj j h h p i x e.F..X@XT.V.` #.#.#.%.%.&.#.$.$.! ! $.#.$.%.%.%.&.#.#.` V.R.@X.XF.e.x g i j j g g wXwXwXwXwXwXwXwXwXwXwXwX",
"wXwXwXwXwXwXwXwXwXj i i i i x 9.d.F.H.k.{ @.) ` O.>._.;.=.#.! ! ! $.#.=.;.;._.O.` ) _ { k.S.F.d.p.k i i i g g wXwXwXwXwXwXwXwXwXwXwXwXwX",
"wXwXwXwXwXwXwXwXwXwXwXi i g C i.p.w.e.M n n [ x.m.R.|.'.:.#.! W W ! &.:.'.~.R.m. .[ d n M t.r.r.i.Z j i i wXwXwXwXwXwXwXwXwXwXwXwXwXwXwX",
"wXwXwXwXwXwXwXwXwXwXwXwXi g v y.m m z z j a b e.S.@X#X|._.%.$.W W Q &.;.|.W.@XD.e.N a j z z m m C C h g wXwXwXwXwXwXwXwXwXwXwXwXwXwXwXwX",
"wXwXwXwXwXwXwXwXwXwXwXwXg g j h g i h p i g z w.F..X@XR.V.' #.E E Q ` V.R.E..Xf.e.z g p i g p g g g j g wXwXwXwXwXwXwXwXwXwXwXwXwXwXwXwX",
"wXwXwXwXwXwXwXwXwXwXwXwXwXg g i i p h c c h x 6.s.F.G.k. .@.) P P ) `  .k.G.f.d.w.k h c c c j i i g g wXwXwXwXwXwXwXwXwXwXwXwXwXwXwXwXwX",
"wXwXwXwXwXwXwXwXwXwXwXwXwXwXwXg i k Z S Z v C 9.t.e.t.0.M [ / ^ ^ ^ [ M l.0.e.9.7.7.v Z Z Z c i g wXwXwXwXwXwXwXwXwXwXwXwXwXwXwXwXwXwXwX",
"wXwXwXwXwXwXwXwXwXwXwXwXwXwXwXwXi h C b c k x z g z z z a j j h a a a j z z z z x k c v v v h p wXwXwXwXwXwXwXwXwXwXwXwXwXwXwXwXwXwXwXwX",
"wXwXwXwXwXwXwXwXwXwXwXwXwXwXwXwXg g j j g g g g g g g p z g g g g g l g h i i g g g g h z g g g wXwXwXwXwXwXwXwXwXwXwXwXwXwXwXwXwXwXwXwX",
"wXwXwXwXwXwXwXwXwXwXwXwXwXwXwXwXwXz h g g g g i i h c v v k x h x k x k v k g i i g g g g g g wXwXwXwXwXwXwXwXwXwXwXwXwXwXwXwXwXwXwXwXwX",
"wXwXwXwXwXwXwXwXwXwXwXwXwXwXwXwXwXwXwXwXwXwXwXi h h c Z Z v v x x v v C Z c p p g wXwXwXwXwXwXwXwXwXwXwXwXwXwXwXwXwXwXwXwXwXwXwXwXwXwXwX",
"wXwXwXwXwXwXwXwXwXwXwXwXwXwXwXwXwXwXwXwXwXwXwXwXh h v S Z k k x k x x C S v g g wXwXwXwXwXwXwXwXwXwXwXwXwXwXwXwXwXwXwXwXwXwXwXwXwXwXwXwX",
"wXwXwXwXwXwXwXwXwXwXwXwXwXwXwXwXwXwXwXwXwXwXwXwXj g j C x k j h h x j v C k g g wXwXwXwXwXwXwXwXwXwXwXwXwXwXwXwXwXwXwXwXwXwXwXwXwXwXwXwX",
"wXwXwXwXwXwXwXwXwXwXwXwXwXwXwXwXwXwXwXwXwXwXwXwXwXj j h g g j g g g g g j j g wXwXwXwXwXwXwXwXwXwXwXwXwXwXwXwXwXwXwXwXwXwXwXwXwXwXwXwXwX",
"wXwXwXwXwXwXwXwXwXwXwXwXwXwXwXwXwXwXwXwXwXwXwXwXwXwXwXwXwXwXwXwXwXwXwXwXwXwXwXwXwXwXwXwXwXwXwXwXwXwXwXwXwXwXwXwXwXwXwXwXwXwXwXwXwXwXwXwX",
"wXwXwXwXwXwXwXwXwXwXwXwXwXwXwXwXwXwXwXwXwXwXwXwXwXwXwXwXwXwXwXwXwXwXwXwXwXwXwXwXwXwXwXwXwXwXwXwXwXwXwXwXwXwXwXwXwXwXwXwXwXwXwXwXwXwXwXwX",
"wXwXwXwXwXwXwXwXwXwXwXwXwXwXwXwXwXwXwXwXwXwXwXwXwXwXwXwXwXwXwXwXwXwXwXwXwXwXwXwXwXwXwXwXwXwXwXwXwXwXwXwXwXwXwXwXwXwXwXwXwXwXwXwXwXwXwXwX",
"wXwXwXwXwXwXwXwXwXwXwXwXwXwXwXwXwXwXwXwXwXwXwXwXwXwXwXwXwXwXwXwXwXwXwXwXwXwXwXwXwXwXwXwXwXwXwXwXwXwXwXwXwXwXwXwXwXwXwXwXwXwXwXwXwXwXwXwX"
};
