/* XPM */
static char *result[] = {
/* columns rows colors chars-per-pixel */
"68 64 215 2 ",
"   c #312813",
".  c #2A2239",
"X  c #4D421A",
"o  c #6F5A13",
"O  c #6D6316",
"+  c #6E5837",
"@  c #7A6F34",
"#  c #7E7726",
"$  c #0F0E43",
"%  c #2A2654",
"&  c #533C58",
"*  c #423673",
"=  c #534B5E",
"-  c #826C16",
";  c #876242",
":  c #837962",
">  c #AB7E75",
",  c #A18A14",
"<  c #9E943E",
"1  c #AF9B32",
"2  c #C1AB2D",
"3  c #C7B13F",
"4  c #A68D41",
"5  c #B39049",
"6  c #B0A265",
"7  c #D99F5D",
"8  c #C1AE42",
"9  c #CFA24A",
"0  c #C3B34B",
"q  c #D6BD49",
"w  c #D2BD50",
"e  c #E3B14F",
"r  c #E39C63",
"t  c #E29D6A",
"y  c #E09668",
"u  c #E19D73",
"i  c #E4A36D",
"p  c #E9A56F",
"a  c #E7AE6F",
"s  c #E7A76B",
"d  c #EDBF6F",
"f  c #ECB463",
"g  c #E5A572",
"h  c #EBA773",
"j  c #E6AA73",
"k  c #EBAA75",
"l  c #E2A47D",
"z  c #E5AB7B",
"x  c #ECAC7B",
"c  c #F2AC75",
"v  c #F1AE79",
"b  c #ECB373",
"n  c #EBBD74",
"m  c #ECB27D",
"M  c #EDBB7B",
"N  c #E7B478",
"B  c #F3B576",
"V  c #F5B877",
"C  c #F3B37B",
"Z  c #FAB57C",
"A  c #F5BB7C",
"S  c #FBB97E",
"D  c #DBC54D",
"F  c #DFCC57",
"G  c #D3C152",
"H  c #F3C953",
"J  c #ECD957",
"K  c #EDD95A",
"L  c #EDD757",
"P  c #F7D45F",
"I  c #F3DD5C",
"U  c #FADB56",
"Y  c #E3C84E",
"T  c #FEE64C",
"R  c #FFEA4E",
"E  c #FEE555",
"W  c #FFEA56",
"Q  c #FEE65E",
"!  c #FFE95C",
"~  c #D7C466",
"^  c #EFC167",
"/  c #EEC16A",
"(  c #FACB6B",
")  c #F5D364",
"_  c #F4D26D",
"`  c #F6D96F",
"'  c #FBDD6D",
"]  c #FADA63",
"[  c #EEC271",
"{  c #EFCC7E",
"}  c #FBCB75",
"|  c #F1C27C",
" . c #F0CD7D",
".. c #FCCC79",
"X. c #F9C67C",
"o. c #FDDB74",
"O. c #F7DD79",
"+. c #FADF7B",
"@. c #F4D270",
"#. c #FEE761",
"$. c #FEEA62",
"%. c #FCE66B",
"&. c #FEE96A",
"*. c #F4E06C",
"=. c #FBE574",
"-. c #FEEA75",
";. c #F9E47C",
":. c #FCEA79",
">. c #F7E07F",
",. c #5C588F",
"<. c #7E7B9F",
"1. c #A98A9B",
"2. c #A29EA2",
"3. c #B6A9BF",
"4. c #CEAF8F",
"5. c #E2AC84",
"6. c #E2AE8B",
"7. c #EBAE81",
"8. c #E5B184",
"9. c #ECB484",
"0. c #E9BB83",
"q. c #E5B48B",
"w. c #EAB58A",
"e. c #E6B98B",
"r. c #EABB8C",
"t. c #E7B986",
"y. c #F4B681",
"u. c #F4BA83",
"i. c #FABB84",
"p. c #F2BA8B",
"a. c #F8BB8A",
"s. c #E3B795",
"d. c #E5B995",
"f. c #E6BF9B",
"g. c #EBBB94",
"h. c #F0BE92",
"j. c #DDB7B1",
"k. c #ECCB8E",
"l. c #EEC28B",
"z. c #F5C387",
"x. c #F3CE81",
"c. c #FDCC82",
"v. c #F3C38C",
"b. c #FCCB8D",
"n. c #FCC18C",
"m. c #EFD38C",
"M. c #E0D083",
"N. c #F5D181",
"B. c #F9D482",
"V. c #F5DD83",
"C. c #FADC84",
"Z. c #F3D68E",
"A. c #F5DC8A",
"S. c #EAC494",
"D. c #EACB97",
"F. c #E6C19C",
"G. c #E9C49B",
"H. c #EBCA9B",
"J. c #F5C494",
"K. c #FAC291",
"L. c #F3CC94",
"P. c #FAC895",
"I. c #F2CB9D",
"U. c #FACA9B",
"Y. c #F2C19A",
"T. c #EDD296",
"R. c #EFD997",
"E. c #ECD19A",
"W. c #EFD99F",
"Q. c #F3D692",
"!. c #FBD595",
"~. c #F2DB95",
"^. c #F2D39A",
"/. c #F2DB9A",
"(. c #F9DA9E",
"). c #F9DB97",
"_. c #F7E184",
"`. c #F8E481",
"'. c #F7E489",
"]. c #F8E389",
"[. c #FDEB8A",
"{. c #FBE880",
"}. c #EFE19F",
"|. c #F4E194",
" X c #F3E19A",
".X c #EACBA4",
"XX c #E8CDAB",
"oX c #E9C7A3",
"OX c #F1CDA3",
"+X c #F0C7A0",
"@X c #ECD3A3",
"#X c #EEDAA2",
"$X c #EBD3AB",
"%X c #EEDCA9",
"&X c #F6D1A1",
"*X c #F0DCA1",
"=X c #F7D4A8",
"-X c #F2CEB5",
";X c #FCECA9",
":X c #FFF3A1",
">X c #FEF3AF",
",X c #FFF4B0",
"<X c #C4C1D2",
"1X c LightGray",
"2X c #E2DCC0",
"3X c #E5D4D8",
"4X c #FFECC7",
"5X c #FFF8C3",
"6X c #FFFAD8",
"7X c #F4F1D5",
"8X c #FAE8DC",
"9X c #F0F0ED",
"0X c #FDFAF0",
"qX c #EBE7ED",
"wX c None",
/* pixels */
"wXwXwXwXwXwXwXwXwXwXwXwXwXwXwXwXwXwXwXwXwXwXwXwXwXwXwXwXwXwXwXwXwXwXwXwXwXwXwXwXwXwXwXwXwXwXwXwXwXwXwXwXwXwXwXwXwXwXwXwXwXwXwXwXwXwXwXwX",
"wXwXwXwXwXwXwXwXwXwXwXwXwXwXwXwXwXwXwXwXwXwXwXwXwXwXwXwXwXwXwXwXwXwXwXwXwXwXwXwXwXwXwXwXwXwXwXwXwXwXwXwXwXwXwXwXwXwXwXwXwXwXwXwXwXwXwXwX",
"wXwXwXwXwXwXwXwXwXwXwXwXwXwXwXwXwXwXwXwXwXwXwXwXwXwXwXi i h c h g g u u u u h c h t i wXwXwXwXwXwXwXwXwXwXwXwXwXwXwXwXwXwXwXwXwXwXwXwXwX",
"wXwXwXwXwXwXwXwXwXwXwXwXwXwXwXwXwXwXwXwXwXwXwXwXwXwXwXg g c C c g g g g g g x v j i i wXwXwXwXwXwXwXwXwXwXwXwXwXwXwXwXwXwXwXwXwXwXwXwXwX",
"wXwXwXwXwXwXwXwXwXwXwXwXwXwXwXwXwXwXwXwXwXwXwXwXwXwXwXz z m A m b j a a j k m A x z z wXwXwXwXwXwXwXwXwXwXwXwXwXwXwXwXwXwXwXwXwXwXwXwXwX",
"wXwXwXwXwXwXwXwXwXwXwXwXwXwXwXwXwXwXwXwXwXwXwXwXwXwX5.q.w.r.v.| n / ^ ^ / [ | l.e.q.q.5.wXwXwXwXwXwXwXwXwXwXwXwXwXwXwXwXwXwXwXwXwXwXwXwX",
"wXwXwXwXwXwXwXwXwXwXwXwXwXwXwXwXwXwXwXwXi i t y u l 6.s.F.H.Q.N._ ) I P ) _ x.L.D.f.s.6.l u t t i i wXwXwXwXwXwXwXwXwXwXwXwXwXwXwXwXwXwX",
"wXwXwXwXwXwXwXwXwXwXwXwXwXwXwXwXwXwXwXp h c c c k x e.F..X@X~.V.` #.W ! Q ' V./.@X.XF.w.x h h c v g i wXwXwXwXwXwXwXwXwXwXwXwXwXwXwXwXwX",
"wXwXwXwXwXwXwXwXwXwXwXwXwXwXwXwXwXwXwXz C u.S V B m l.H.@X*X X`.&.! W W ! %.`.|.*X@XH.l.m C V S i.m z wXwXwXwXwXwXwXwXwXwXwXwXwXwXwXwXwX",
"wXwXwXwXwXwXwXwXwXwXwXwXwXwXwXwXwXwX5.8.h.P.b.c.} } B.Z.|. X[.:.&.$.W W ! &.:.'.|.~.Z.B.....c.b.P.h.8.z wXwXwXwXwXwXwXwXwXwXwXwXwXwXwXwX",
"wXwXwXwXwXwXwXwXwXwXwXwXwXwXwXwXt j 8.d.I.&X!.C.o.' o.;.`.:.-.-.&.$.! ! ! &.=.:.`.`.;.o.' o.B.!.&XG.d.q.j r wXwXwXwXwXwXwXwXwXwXwXwXwXwX",
"wXwXwXwXwXwXwXwXwXwXwXwXwXwXwXr g m r.G..X@X/.C.%.#.#.&.&.%.&.$.$.$.$.$.$.$.$.$.*.%.%.#.#.%.C./.*X.XG.r.x i r wXwXwXwXwXwXwXwXwXwXwXwXwX",
"wXwXwXwXwXwXwXwXwXwXwXwXwXwXwXg x v.P.OX@X*X|.C.&.! E E U T U I I ! I I $.$.$.Q Q ! ! W ! %.`.)./.&X.XP.p.z g wXwXwXwXwXwXwXwXwXwXwXwXwX",
"wXwXwXwXwXwXwXwXwXwXwXwXwXwX5.5.r.U.&X(.(.|.].:.&.! U U U H e G G G F K ! $.$.Q ! E W ! ! &.:.'.|./.(.(.L.t.8.5.wXwXwXwXwXwXwXwXwXwXwXwX",
"wXwXwXwXwXwXwXwXwXwXwXwXi z 5.s.G.&X*X).A.;.=.&.$.Q U H H e 3 5 1 4 0 F *.$.$.! Q ! ! ! Q #.&.:.;.'.).(.^.S.e.8.z i wXwXwXwXwXwXwXwXwXwX",
"wXwXwXwXwXwXwXwXwXwXwXi i z e.G..X@X/.'.=.&.! #.#.#.] ( f 7 > @ + @ < G K $.$.$.$.$.$.#.Q #.Q #.&.=._./.@X.XF.e.x i i wXwXwXwXwXwXwXwXwX",
"wXwXwXwXwXwXwXwXwXwXwXt i 9.L.I.@X/.|.>.&.! W W Q %.o.a.w.4.6 & . X @ 0 K $.$.$.$.#.$.#.#.Q ! W W %.`./.#X$XOXJ.y.h s wXwXwXwXwXwXwXwXwX",
"wXwXwXwXwXwXwXwXwXwXwXt p u.!.).). X].=.#.W R R ! =.A.-X-Xj.1.* $   O 8 J $.$.$.$.#.! Q ! ! W R W &.`.;X%X$X=XU.u.h p wXwXwXwXwXwXwXwXwX",
"wXwXwXwXwXwXwXwXwXwXwXy g V c.C.C.;.:.&.#.! R T W -.;X4X8X3X3.,.%   O 8 J $.$.$.#.#.Q ! ! W W R W &.{. X%X$X=XU.9.i i wXwXwXwXwXwXwXwXwX",
"wXwXwXwXwXwXwXwXwXwXwXu g V ..o.=.&.&.&.#.! T T E -.>X6X0XqX<X<.= X - 3 J $.$.$.#.Q Q Q Q Q E W ! &.`. X%X$XOXJ.x i i wXwXwXwXwXwXwXwXwX",
"wXwXwXwXwXwXwXwXwXwXwXu l A ..' ] ! ! ! #.Q T T E :.,X6X0X9X1X2.: - , G J $.$.$.$.#.&.&.%.%.%.#.Q *.V.~.E..XY.J.m i i wXwXwXwXwXwXwXwXwX",
"wXwXwXwXwXwXwXwXwXwX5.6.s.v.B.' #.! W ! #.#.E W ! -.:X5X6X7X$X4.6 1 2 D I $.Q ! ! #.%.;.O.`.O.` _ _ { k.S.S.S.p.x g i wXwXwXwXwXwXwXwXwX",
"wXwXwXwXwXwXwXwXg z q.d.f.H.Q.O.%.! W ! ! #.! E Q &.[.:X,X;X}. .~ G D J Q #.! W W #.=.`. X/.m.{ [ d n M t.e.p.u.x g g wXwXwXwXwXwXwXwXwX",
"wXwXwXwXwXwXwXt i m h.+X.X*X/.>.%.! W ! #.#.Q Q #.&.%.-.:.:.=.*.I I I Q #.#.Q ! ! &.;.~.#XE.D.t.N j j j z z m C k g g wXwXwXwXwXwXwXwXwX",
"wXwXwXwXwXwXwXt g C P.OX@X*X|.;.%.Q ! ! #.#.#.#.#.Q Q ! E E ! ! ! $.$.#.#.#.#.#.%.=.A.R.@X.Xf.q.z g i i i h c C k j g wXwXwXwXwXwXwXwXwX",
"wXwXwXwXwXwXwXg j A P.!./.|.].;.%.Q Q Q #.#.#.#.#.Q ! T T T R W $.$.$.! ! %.%.=.;.V.Z.T.G.G.d.q.x h h k h c V S C j g wXwXwXwXwXwXwXwXwX",
"wXwXwXwXwXwXwXg h C c.C.C.`.:.-.&.Q Q ! #.#.#.#.#.#.! W E E W ! $.$.$.! $.&.=._.~.~.D.S.e.w.8.7.x c c c C c Z S C j j wXwXwXwXwXwXwXwXwX",
"wXwXwXwXwXwXwXu g b ..o.' %.&.#.#.#.#.#.#.#.#.#.#.#.! ! ! ! Q $.$.$.! ! ! &.;.~.#X@XS.e.8.j h j k x x k k k Z S k g g wXwXwXwXwXwXwXwXwX",
"wXwXwXwXwXwXwXg g b } ' Q ! ! ! #.#.#.#.#.#.#.#.#.#.#.#.#.$.#.$.$.$.! ! Q &.'./.%XXXf.e.j i i h h j k j j j v C h g g wXwXwXwXwXwXwXwXwX",
"wXwXwXwXwXwXwXu i b } ] W W W ! ! #.#.#.#.#.#.#.#.#.#.#.#.#.#.$.$.$.W W Q *.'./.$XXXoXe.z i r t g g h j h g g h g j wXwXwXwXwXwXwXwXwXwX",
"wXwXwXwXwXwXwXu u b ( ] ! W W ! #.#.#.#.#.#.#.#.#.#.#.#.#.#.#.#.#.Q ! W Q %.'.}.$XXX+Xw.j i r r wXwXwXwXwXwXwXwXwXwXwXwXwXwXwXwXwXwXwXwX",
"wXwXwXwXwXwXwXu g b } ' Q ! ! ! #.#.#.#.#.#.#.#.#.! #.#.#.#.#.#.#.$.Q W Q %.'.R.@X$X.Xh.C p r wXwXwXwXwXwXwXwXwXwXwXwXwXwXwXwXwXwXwXwXwX",
"wXwXwXwXwXwXwXu g N ..o.' %.&.&.#.#.Q #.#.#.#.#.#.#.#.#.#.#.#.#.#.Q Q Q Q %.;.~.W.&XI.J.p.x j wXwXwXwXwXwXwXwXwXwXwXwXwXwXwXwXwXwXwXwXwX",
"wXwXwXwXwXwXwXu u b c.B.C.`.;.&.&.#.Q ! #.#.#.#.#.#.#.#.#.#.#.Q #.#.Q ! Q %.=.`.~./.^.L.S.e.6.5.wXwXwXwXwXwXwXwXwXwXwXwXwXwXwXwXwXwXwXwX",
"wXwXwXwXwXwXwXt g b b.Q./. X'.;.&.Q ! ! #.#.#.#.#.#.#.#.#.#.#.$.#.#.#.Q #.&.%.=.+.V.~.^.H.F.s.6.l u y y t t i i i g wXwXwXwXwXwXwXwXwXwX",
"wXwXwXwXwXwXwXt g 7.J.I.@X#X~.;.%.! ! ! #.#.#.#.#.#.#.#.#.#.#.#.#.! #.#.#.#.Q #.&.=.A./.@X.XF.d.x h h h h h k b k j g wXwXwXwXwXwXwXwXwX",
"wXwXwXwXwXwXwXi i x K.I.oX@XR.V.%.! ! ! #.#.#.#.#.$.! #.#.#.#.#.#.#.#.#.#.Q ! E ! &.>.|.*X@XE.v.A B B Z A y.i.i.C k h wXwXwXwXwXwXwXwXwX",
"wXwXwXwXwXwXwXi j y.h.Y.f.D.m.O.%.W ! ! #.#.#.#.#.#.#.#.#.#.#.#.#.#.#.#.#.Q ! W W #.=.].|.).Z.B...} X.z.v.J.K.n.A j g wXwXwXwXwXwXwXwXwX",
"wXwXwXwXwXwXwXg k A a.p.w.e.x.` ] W W ! ! #.#.#.#.#.#.#.#.#.#.#.#.#.#.#.#.#.! ! ! #.&.=.V.>.O.o.' o...Q.I.I.U.K.C i i wXwXwXwXwXwXwXwXwX",
"wXwXwXwXwXwXwXj h x y.7.z b [ ) #.! ! #.! #.#.#.#.! $.#.#.#.#.#.#.#.#.#.#.#.! Q Q #.&.&.&.&.%.Q %.=.`.Q.*XOX+XJ.m i i wXwXwXwXwXwXwXwXwX",
"wXwXwXwXwXwXwXg g h h g g j / _ ` &.&.&.#.! #.#.#.#.#.#.#.#.#.#.#.#.#.#.#.#.#.#.#.#.Q Q Q ! W E ! &.`./.%X$XOXJ.m g i wXwXwXwXwXwXwXwXwX",
"wXwXwXwXwXwXwXwXg g g t i b A N.V.`.:.&.#.! ! ! #.#.#.#.! #.#.#.#.#.#.#.#.#.#.#.#.#.Q Q ! W W R W &.`. X%X$X.XJ.9.i i wXwXwXwXwXwXwXwXwX",
"wXwXwXwXwXwXwXwXwXwXi t i b v.D.~.|.`.;.&.E E ! Q $.#.#.#.#.#.#.! #.#.#.#.#.#.#.#.#.! ! ! ! W R W &.`. X%X$X&XJ.9.i i wXwXwXwXwXwXwXwXwX",
"wXwXwXwXwXwXwXwXwXwXwXt i m J.I.@XW. X;.&.! W ! Q $.#.#.#.#.#.#.#.#.#.#.#.#.#.#.#.#.#.#.#.Q ! W W %.;. X#X$X.XJ.x i i wXwXwXwXwXwXwXwXwX",
"wXwXwXwXwXwXwXwXwXwXwXi g y.K.G..X@X/.A.=.&.#.$.Q Q $.! Q #.#.#.#.#.#.#.#.#.#.#.#.#.! $.Q $.#.$.%.=.A.R.@X.XY.K.m i i wXwXwXwXwXwXwXwXwX",
"wXwXwXwXwXwXwXwXwXwXwXt g y.K.J.G.H.D.~._.>.=.&.&.$.! ! ! Q Q ! #.#.#.#.#.#.#.! ! ! ! ! #.$.&.=.;.V.R.T.D.S.J.K.m h i wXwXwXwXwXwXwXwXwX",
"wXwXwXwXwXwXwXwXwXwXwXg g A n.p.e.S.S.D.R. X].:.&.! W W W Q ! ! #.#.#.#.#.Q ! ! Q W W ! ! &.:.'.|.R.T.S.l.t.p.i.C k g wXwXwXwXwXwXwXwXwX",
"wXwXwXwXwXwXwXwXwXwXwXg g C S k x 8.g.D.@XW.|.;.&.! ! ! ! ! $.#.#.#.#.#.#.Q Q ! ! ! E W ! %.;. XW.@XD.e.8.z C i.v k j wXwXwXwXwXwXwXwXwX",
"wXwXwXwXwXwXwXwXwXwXwXg g j h i h x w.F..X@XR.V.` ] #.*.%.&.%.&.Q #.#.#.$.$.&.%.%.%.&.#.Q ` V.R.@XoXF.w.k i p c h j g wXwXwXwXwXwXwXwXwX",
"wXwXwXwXwXwXwXwXwXwXwXwXg i i i i b 9.g.F.S.k.{ _ ) ` O.;.;.;.&.&.! ! ! ! &.&.;.`.V.O.` _ _ { k.G.F.d.p.k i i i i g wXwXwXwXwXwXwXwXwXwX",
"wXwXwXwXwXwXwXwXwXwXwXwXwXwXg i h S p.p.e.t.M n d [ { m.R.~.`.:.&.! W W ! &.;.'.~./.m. .[ n n N t.e.p.a.C g i i wXwXwXwXwXwXwXwXwXwXwXwX",
"wXwXwXwXwXwXwXwXwXwXwXwXwXwXwXg j C C m x N z j j N e.D.@XW.|.;.&.! W W ! &.`. X#XE.H.0.N a h z z x m y.b g i wXwXwXwXwXwXwXwXwXwXwXwXwX",
"wXwXwXwXwXwXwXwXwXwXwXwXwXwXwXg g g j g p p i h g z q.F..X@XR.V.` Q U E Q *.V.R.E.oXf.q.z g t p j g g j j g g wXwXwXwXwXwXwXwXwXwXwXwXwX",
"wXwXwXwXwXwXwXwXwXwXwXwXwXwXwXwXg g i i h c c c j x w.d.F.S.k.x._ ) P P ) _ x.S.D.f.d.w.x c h c k p i i g g wXwXwXwXwXwXwXwXwXwXwXwXwXwX",
"wXwXwXwXwXwXwXwXwXwXwXwXwXwXwXwXwXwXi g c Z Z Z c 7.y.w.q.e.0.| [ / ^ ^ / [ M 0.e.e.t.9.v Z Z Z Z h i g wXwXwXwXwXwXwXwXwXwXwXwXwXwXwXwX",
"wXwXwXwXwXwXwXwXwXwXwXwXwXwXwXwXwXwXwXg j v v c h k k z z z j j a a a j k j b z z z z z z k k c C j g wXwXwXwXwXwXwXwXwXwXwXwXwXwXwXwXwX",
"wXwXwXwXwXwXwXwXwXwXwXwXwXwXwXwXwXwXwXg g g j g g g g g i h h g l g g g u g h g p i g g g g g h h j g wXwXwXwXwXwXwXwXwXwXwXwXwXwXwXwXwX",
"wXwXwXwXwXwXwXwXwXwXwXwXwXwXwXwXwXwXwXwXg g j g g g g i g h C c k k z k k x v c c h i i g g j j j g wXwXwXwXwXwXwXwXwXwXwXwXwXwXwXwXwXwX",
"wXwXwXwXwXwXwXwXwXwXwXwXwXwXwXwXwXwXwXwXwXwXwXwXwXwXi i p v Z C c v c x c v Z Z c h p i wXwXwXwXwXwXwXwXwXwXwXwXwXwXwXwXwXwXwXwXwXwXwXwX",
"wXwXwXwXwXwXwXwXwXwXwXwXwXwXwXwXwXwXwXwXwXwXwXwXwXwXwXg h C Z C x x x x k c v Z v k h wXwXwXwXwXwXwXwXwXwXwXwXwXwXwXwXwXwXwXwXwXwXwXwXwX",
"wXwXwXwXwXwXwXwXwXwXwXwXwXwXwXwXwXwXwXwXwXwXwXwXwXwXwXg j x V v k j j z k k x v x j g wXwXwXwXwXwXwXwXwXwXwXwXwXwXwXwXwXwXwXwXwXwXwXwXwX",
"wXwXwXwXwXwXwXwXwXwXwXwXwXwXwXwXwXwXwXwXwXwXwXwXwXwXwXwXg g j g g h g g g g h j j g wXwXwXwXwXwXwXwXwXwXwXwXwXwXwXwXwXwXwXwXwXwXwXwXwXwX",
"wXwXwXwXwXwXwXwXwXwXwXwXwXwXwXwXwXwXwXwXwXwXwXwXwXwXwXwXwXwXwXwXwXwXwXwXwXwXwXwXwXwXwXwXwXwXwXwXwXwXwXwXwXwXwXwXwXwXwXwXwXwXwXwXwXwXwXwX",
"wXwXwXwXwXwXwXwXwXwXwXwXwXwXwXwXwXwXwXwXwXwXwXwXwXwXwXwXwXwXwXwXwXwXwXwXwXwXwXwXwXwXwXwXwXwXwXwXwXwXwXwXwXwXwXwXwXwXwXwXwXwXwXwXwXwXwXwX"
};
