/* XPM */
static char *result[] = {
/* columns rows colors chars-per-pixel */
"66 66 126 2 ",
"   c #259061",
".  c #249261",
"X  c #269261",
"o  c #269361",
"O  c #269062",
"+  c #269162",
"@  c #259262",
"#  c #259362",
"$  c #259363",
"%  c #269262",
"&  c #269362",
"*  c #279362",
"=  c #269263",
"-  c #279263",
";  c #269363",
":  c #279363",
">  c #269561",
",  c #249462",
"<  c #259462",
"1  c #259463",
"2  c #269462",
"3  c #269562",
"4  c #269463",
"5  c #279463",
"6  c #269563",
"7  c #269663",
"8  c #279663",
"9  c #259364",
"0  c #269264",
"q  c #269364",
"w  c #279364",
"e  c #259464",
"r  c #269464",
"t  c #279464",
"y  c #269564",
"u  c #279564",
"i  c #279565",
"p  c #269664",
"a  c #279664",
"s  c #269764",
"d  c #279764",
"f  c #269665",
"g  c #279665",
"h  c #269765",
"j  c #279765",
"k  c #279666",
"l  c #269766",
"z  c #279766",
"x  c #289766",
"c  c #269865",
"v  c #279865",
"b  c #269965",
"n  c #279866",
"m  c #269966",
"M  c #279966",
"N  c #279867",
"B  c #269967",
"V  c #279967",
"C  c #269A66",
"Z  c #279A66",
"A  c #279A67",
"S  c #279B67",
"D  c #289865",
"F  c #289866",
"G  c #289966",
"H  c #289967",
"J  c #289A66",
"K  c #289A67",
"L  c #289B67",
"P  c #289C67",
"I  c #279A68",
"U  c #269B68",
"Y  c #279B68",
"T  c #279B69",
"R  c #279C68",
"E  c #279D68",
"W  c #289968",
"Q  c #289A68",
"!  c #299A68",
"~  c #289B68",
"^  c #289B69",
"/  c #299B69",
"(  c #289C68",
")  c #299C68",
"_  c #289D68",
"`  c #299D68",
"'  c #289C69",
"]  c #299C69",
"[  c #289D69",
"{  c #299D69",
"}  c #2A9D69",
"|  c #289E69",
" . c #299E69",
".. c #299F69",
"X. c #2A9E69",
"o. c #289D6A",
"O. c #299D6A",
"+. c #289E6A",
"@. c #299E6A",
"#. c #289F6A",
"$. c #299F6A",
"%. c #299E6B",
"&. c #299F6B",
"*. c #2A9F6A",
"=. c #29A06A",
"-. c #29A06B",
";. c #29A16B",
":. c #29A06C",
">. c #29A16C",
",. c #2AA06C",
"<. c #29A26C",
"1. c #29A26D",
"2. c #2AA26C",
"3. c #2AA36C",
"4. c #2AA26D",
"5. c #2AA36D",
"6. c #2BA36D",
"7. c #2AA36E",
"8. c #2AA46E",
"9. c #2BA56E",
"0. c #2AA56F",
"q. c #2AA66F",
"w. c #2BA870",
"e. c #2BA871",
"r. c #2CA871",
"t. c None",
/* pixels */
"4 4 4 4 4 4 4 4 4 4 4 4 4 4 4 4 4 4 4 4 4 4 4 4 4 4 4 4 4 4 4 4 4 4 4 4 4 4 4 4 4 4 4 4 4 4 4 4 4 4 4 4 4 4 4 4 4 4 4 4 4 4 4 6 p 4 ",
"4 4 4 4 4 4 4 4 4 4 4 4 4 4 4 4 4 4 4 4 4 4 4 4 4 4 4 4 4 4 4 4 4 4 4 4 4 4 4 4 4 4 4 4 4 4 4 4 4 4 4 4 4 4 4 4 4 4 4 4 4 4 4 6 p 4 ",
"4 4 4 4 4 4 4 4 4 4 4 4 4 4 4 ; 1 < 1 < 1 < 1 1 < 1 1 1 1 1 < 1 < < 1 1 < 1 < 1 1 < < 1 1 1 1 < < < ; 4 4 4 4 4 4 4 4 4 4 4 4 6 p 4 ",
"4 4 4 4 4 4 4 4 4 4 4 4 4 4 6 R [ [ [ [ [ [ [ [ [ [ [ [ [ [ [ [ [ [ [ [ [ [ [ [ [ [ [ [ [ [ [ [ [ [ Y 7 4 4 4 4 4 4 4 4 4 4 4 6 p 4 ",
"4 4 4 4 4 4 4 4 4 4 4 4 4 4 4 y p g g g g g g g f f g g g g g g g g f g g g g g g g g g f g f g g p f r 6 4 4 4 4 4 4 4 4 4 4 6 p 4 ",
"4 4 4 4 4 4 4 4 4 4 4 4 4 4 y t.t.t.t.t.t.t.t.t.t.t.t.t.t.t.t.t.t.t.t.t.t.t.t.t.t.t.t.t.t.t.t.t.t.t.t.z 6 4 4 4 4 4 4 4 4 4 4 6 p 4 ",
"4 4 4 4 4 4 4 4 4 4 4 4 4 y j t.t.t.t.t.t.t.t.t.t.t.t.t.t.t.t.t.t.t.t.t.t.t.t.t.t.t.t.t.t.t.t.t.t.t.t.V 6 6 4 4 4 4 4 4 4 4 4 6 p 4 ",
"4 4 4 4 4 4 4 4 4 4 4 4 4 y k t.t.t.t.t.t.t.t.t.t.t.t.t.t.t.t.t.t.t.t.t.t.t.t.t.t.t.t.t.t.t.t.t.t.t.t.Z 6 4 4 4 4 4 4 4 4 4 4 6 p 4 ",
"4 4 4 4 4 4 4 4 4 4 4 4 4 y k t.t.t.t.t.t.t.t.t.J Y g v Z G t.t.t.t.t.t.t.t.t.t.t.t.t.t.t.t.t.t.t.t.t.M 6 4 4 4 4 4 4 4 4 4 4 6 p 4 ",
"4 4 4 4 4 4 4 4 4 4 4 4 4 y k t.t.t.t.t.t.t.t.N 5.[ j M &.v O t.t.t.t.t.t.t.t.t.t.t.t.t.t.t.t.t.t.t.t.M 6 4 4 4 4 4 4 4 4 4 4 6 p 4 ",
"4 4 4 4 4 4 4 4 4 4 4 4 4 y k t.t.t.t.t.t.t.9 A M % 2 1 ; z n t.t.t.t.t.t.t.t.t.t.t.t.t.t.t.t.t.t.t.t.M 6 4 4 4 4 4 4 4 4 4 4 6 p 4 ",
"4 4 4 4 4 4 4 4 4 4 4 4 4 y k t.t.t.t.t.t.t.r K 2 4 4 4 2 g -.t.t.t.t.t.t.t.t.t.t.t.t.t.t.t.t.t.t.t.t.M 6 4 4 4 4 4 4 4 4 4 4 6 p 4 ",
"4 4 4 4 4 4 4 4 4 4 4 4 4 y k t.t.t.t.t.t.t.j Q 2 4 4 4 2 y @.t.t.t.t.t.t.t.t.t.t.t.t.t.t.t.t.t.t.t.t.M 6 4 4 4 4 4 4 4 4 4 4 6 p 4 ",
"4 4 4 4 4 4 4 4 4 4 4 4 4 y k t.t.t.t.t.t.t.< n 7 4 4 6 ; p  .t.t.t.t.t.t.t.t.t.t.t.t.t.t.t.t.t.t.t.t.M 6 4 4 4 4 4 4 4 4 4 4 6 p 4 ",
"4 4 4 4 4 4 4 4 4 4 4 4 4 y k t.t.t.t.t.t.t.t.E ~ 4 6 6 i j & t.t.t.t.t.t.t.t.t.t.t.t.t.t.t.t.t.t.t.t.M 6 4 4 4 4 4 4 4 4 4 4 6 p 4 ",
"4 4 4 4 4 4 4 4 4 4 4 4 4 y k t.t.t.t.t.t.t.t.o ( #.V [ %.G t.t.t.t.t.t.t.t.t.t.t.t.t.t.t.t.t.t.t.t.t.M 6 4 4 4 4 4 4 4 4 4 4 6 p 4 ",
"4 4 4 4 4 4 4 4 4 4 4 4 4 y k t.t.t.t.t.t.t.t.t.t.& 2 2 q t.t.t.t.t.t.t.t.t.t.t.t.t.t.t.t.t.t.t.t.t.t.M 6 4 4 4 4 4 4 4 4 4 4 6 p 4 ",
"4 4 4 4 4 4 4 4 4 4 4 4 4 y k t.t.t.t.t.t.t.t.t.t.t.t.t.q * 4 1 > > o > o > o 6 2 2 - t.t.t.t.t.t.t.t.M 6 4 4 4 4 4 4 4 4 4 4 6 p 4 ",
"4 4 4 4 4 4 4 4 4 4 4 4 4 y k t.t.t.t.t.t.t.t.t.t.t.F &. .~ A A C Z C Z Z A C A Z Q $...t.t.t.t.t.t.t.M 6 4 4 4 4 4 4 4 4 4 4 6 p 4 ",
"4 4 4 4 4 4 4 4 4 4 4 4 4 y k t.t.t.t.t.t.t.t.t.t.[  .4 y y y y y y y r y 6 u 6 6 6 t ~ 1.t.t.t.t.t.t.M 6 4 4 4 4 4 4 4 4 4 4 6 p 4 ",
"4 4 4 4 4 4 4 4 4 4 4 4 4 y k t.t.t.t.t.t.t.t.t.' ' p 2 4 4 4 4 4 4 4 6 4 j g j j y $ 7 h 0 t.t.t.t.t.M 6 4 4 4 4 4 4 4 4 4 4 6 p 4 ",
"4 4 4 4 4 4 4 4 4 4 4 4 4 y k t.t.t.t.t.t.t.t.Q H p 4 4 4 4 4 4 4 4 6 6 t a z z n V j # j ( t.t.t.t.t.M 6 4 4 4 4 4 4 4 4 4 4 6 p 4 ",
"4 4 4 4 4 4 4 4 4 4 4 4 4 y k t.t.t.t.t.t.t.# a n ; 4 4 4 4 4 4 4 4 4 V y t.t.t.t.t.G [ t v % t.t.t.t.M 6 4 4 4 4 4 4 4 4 4 4 6 p 4 ",
"4 4 4 4 4 4 4 4 4 4 4 4 4 y k t.t.t.t.t.t.t.j A ; 4 4 y 4 4 4 4 4 4 4 f l t.t.t.t.t.v $.4 y ~ t.t.t.t.M 6 4 4 4 4 4 4 4 4 4 4 6 p 4 ",
"4 4 4 4 4 4 4 4 4 4 4 4 4 y g t.t.t.t.t.t.Z V y 4 p n y 4 4 4 4 4 4 4 ; 7.z t.t.t.t.t.v @.4 H u t.t.t.Z 6 4 4 4 4 4 4 4 4 4 4 6 p 4 ",
"4 4 4 4 4 4 4 4 4 4 4 4 4 y f t.t.t.t.t.j S p = A M 4 d [ 1 4 4 4 4 4 $ ( f t.t.t.t.t.t.&.6 4 K t.t.t.Z 6 4 4 4 4 4 4 4 4 4 4 6 p 4 ",
"4 4 4 4 4 4 4 4 4 4 4 4 4 4 y n H M M n n y $ y ' [ t.t.4.4 6 4 4 4 4 4 $ >.t.t.t.t.t.t.h @.1 V ; t.t.M 6 4 4 4 4 4 4 4 4 4 4 6 p 4 ",
"4 4 4 4 4 4 4 4 4 4 4 4 4 4 6 | -.&.-.O.6 ; t [ v t.t.t.u ~ < 4 4 4 4 4 ; 2.A t.t.t.t.t.t.>.B K 9 t.t.V 6 4 4 4 4 4 4 4 4 4 4 6 p 4 ",
"4 4 4 4 4 4 4 4 4 4 4 4 4 4 4 ; ; ; ; ; 6 g [ f t.t.t.t.G 4.; 4 4 4 4 4 ; n g t.t.t.t.t.t.g 8.1.t.t.t.Z 6 4 4 4 4 4 4 4 4 4 4 6 p 4 ",
"4 4 4 4 4 4 4 4 4 4 4 4 4 4 4 y p p p y y / v t.t.t.t.t.t.Q y 6 4 4 4 4 4 # 4.D t.t.t.t.t.t.t.t.t.t.t.Z 6 4 4 4 4 4 4 4 4 4 4 6 p 4 ",
"4 4 4 4 4 4 4 4 4 4 4 4 4 4 4 5 4 2 4 r 1 # t.t.t.t.t.t.t.y @.# 4 4 4 4 4 # [ j t.t.t.t.t.t.t.t.t.t.t.M 6 4 4 4 4 4 4 4 4 4 4 6 p 4 ",
"4 4 4 4 4 4 4 4 4 4 4 4 4 6 a t.t.t.t.t.t.t.t.t.t.t.t.t.t.t.5.; 4 4 4 4 4 6 4 ] u t.t.t.t.t.t.t.t.t.t.M 6 4 4 4 4 4 4 4 4 4 4 6 p 4 ",
"4 4 4 4 4 4 4 4 4 4 4 4 4 y j t.t.t.t.t.t.t.t.t.t.t.t.t.t.t.r v 4 4 4 4 4 4 1 >.W t.t.t.t.t.t.t.t.t.t.M 6 4 4 4 4 4 4 4 4 4 4 6 p 4 ",
"4 4 4 4 4 4 4 4 4 4 4 4 4 y k t.t.t.t.t.t.t.t.t.t.t.t.t.t.t.u ,.= 4 4 4 4 4 # >.~ t.t.t.t.t.t.t.t.t.t.M 6 4 4 4 4 4 4 4 4 4 4 6 p 4 ",
"4 4 4 4 4 4 4 4 4 4 4 4 4 y k t.t.t.t.t.t.t.t.t.t.t.t.t.t.t.r ` 1 4 4 4 4 4 ; ;.P t.t.t.t.t.t.t.t.t.t.M 6 4 4 4 4 4 4 4 4 4 4 6 p 4 ",
"4 4 4 4 4 4 4 4 4 4 4 4 4 y k t.t.t.t.t.t.t.t.t.t.t.t.t.t.t.&.1 4 4 4 M 4 4 ; -.( t.t.t.t.t.t.t.t.t.t.M 6 4 4 4 4 4 4 4 4 4 4 6 p 4 ",
"4 4 4 4 4 4 4 4 4 4 4 4 4 y k t.t.t.t.t.t.t.t.t.t.t.t.t.t.6 &., 4 & p * 6 6 = +.L t.t.t.t.t.t.t.t.t.t.M 6 4 4 4 4 4 4 4 4 4 4 6 p 4 ",
"4 4 4 4 4 4 4 4 4 4 4 4 4 y k t.t.t.t.t.t.t.t.t.t.t.t.t.t.' y 4 4 Q 2 t.Y j = ' M t.t.t.t.t.t.t.t.t.t.M 6 4 4 4 4 4 4 4 4 4 4 6 p 4 ",
"4 4 4 4 4 4 4 4 4 4 4 4 4 y k t.t.t.t.t.t.t.t.t.t.t.t.t.h >.q 4 ; 5.t.t.[ v ; K F t.t.t.t.t.t.t.t.t.t.M 6 4 4 4 4 4 4 4 4 4 4 6 p 4 ",
"4 4 4 4 4 4 4 4 4 4 4 4 4 y k t.t.t.t.t.t.t.t.t.t.t.t.t.n g r 4 l n t.t.g j 1 n j t.t.t.t.t.t.t.t.t.t.Z y 4 4 4 4 4 4 4 4 4 4 6 p 4 ",
"4 4 4 4 4 4 4 4 4 4 4 4 4 y k t.t.t.t.t.t.t.t.t.t.t.t.v 1.= 4 w o.# t.t.r a 4 a j t.t.t.t.t.t.t.t.t.t.M 4 # 4 4 4 4 4 4 4 4 4 6 p 4 ",
"4 4 4 4 4 4 4 4 4 4 4 4 4 y k t.t.t.t.t.t.t.t.t.t.t.t.j n ; 6 p A t.t.t.t d y 6 L e t.t.t.t.t.t.t.t.t.( :.( 6 2 4 4 4 4 4 4 4 6 p 4 ",
"4 4 4 4 4 4 4 4 4 4 4 4 4 y k t.t.t.t.t.t.t.t.t.t.t.M 2.# 4 6 R ; t.t.t.: M p ; | i t.t.t.t.t.t.t.t.t.$.&.T M d 2 4 4 4 4 4 4 6 p 4 ",
"4 4 4 4 4 4 4 4 4 4 4 4 4 y k t.t.t.t.t.t.t.t.t.t.t.j A # 6 p ] t.t.t.t.5 ~ j $ ' n t.t.t.t.t.t.t.t.t.t.t.t.L G a 2 4 4 4 4 4 6 p 4 ",
"4 4 4 4 4 4 4 4 4 4 4 4 4 y k t.t.t.t.t.t.t.t.t.t.b >.# 3 y K 5 t.t.t.t.X _ v ; y a j s v g g n n g h c K t.t.K n p 4 4 4 4 4 6 p 4 ",
"4 4 4 4 4 4 4 4 4 4 4 4 4 y k t.t.t.t.t.t.t.t.t.t.m ( # 4 p @.t.t.t.t.t.t.{ v ; 2 h [ @.[ | [ [ [ [ @.#.q.r.t.t.( { # 4 4 4 4 6 p 4 ",
"4 4 4 4 4 4 4 4 4 4 4 4 4 y k t.t.t.t.t.t.t.t.t.f $.2 3 6 x % t.t.t.t.t.t.| z 1 6 1 # = ; ; ; ; ; ; ; < . <.M t.L [ 6 4 4 4 4 6 p 4 ",
"4 4 4 4 4 4 4 4 4 4 4 4 4 y k t.t.t.t.t.t.t.t.t.K ' ; 2 d @.t.t.t.t.t.t.t.6.~ y y p p p p p p p p p p p p 8 2.t.t.G ~ 1 4 4 4 6 p 4 ",
"4 4 4 4 4 4 4 4 4 4 4 4 4 y k t.t.t.t.t.t.t.t.6 ~ 4 4 6 j # t.t.t.t.t.t.t.t.5 5 2 ; ; ; ; ; ; ; 4 4 ; 4 1 ; M M t.*.2.# 4 4 4 6 p 4 ",
"4 4 4 4 4 4 4 4 4 4 4 4 4 y k t.t.t.t.t.t.t.t.) ( # ; v $.t.t.t.t.t.t.t.t.t.t.t.t.t.t.t.t.t.t.t.t.t.t.t.t.t.t.t.t.t K y 4 4 4 6 p 4 ",
"4 4 4 4 4 4 4 4 4 4 4 4 4 y k t.t.t.t.t.t.t.& n y 2 2 v y t.t.t.t.t.t.t.t.t.t.t.t.t.t.t.t.t.t.t.t.t.t.@ 2 ; ; q 4 4 4 y 6 4 4 6 p 4 ",
"4 4 4 4 4 4 4 4 4 4 4 4 4 y k t.t.t.t.t.t.t.{ L $ $ M { t.t.t.t.t.t.t.t.t.t.t.t.t.t.t.t.t.t.t.t.t.t.t.-.I K Q Q ! j 6 6 4 4 4 6 p 4 ",
"4 4 4 4 4 4 4 4 4 4 4 4 4 y k t.t.t.t.t.t.$ s 7 2 6 A s t.t.t.t.t.t.t.t.t.t.t.t.t.t.t.t.t.t.t.t.t.t.t.F y 6 y y y 6 4 4 4 4 4 6 p 4 ",
"4 4 4 4 4 4 4 4 4 4 4 4 4 y k t.t.t.t.t.t._ M 2 # n ~ t.t.t.t.t.t.t.t.t.t.t.t.t.t.t.t.t.t.t.t.t.t.t.t.M 6 2 4 4 4 4 4 4 4 4 4 6 p 4 ",
"4 4 4 4 4 4 4 4 4 4 4 4 4 y k t.t.t.t.t.  y 6 + w :.j t.t.t.t.t.t.t.t.t.t.t.t.t.t.t.t.t.t.t.t.t.t.t.t.M 6 4 4 4 4 4 4 4 4 4 4 6 p 4 ",
"4 4 4 4 4 4 4 4 4 4 4 4 4 y z t.t.t.t.t.9.w.5.7.e.p t.t.t.t.t.t.t.t.t.t.t.t.t.t.t.t.t.t.t.t.t.t.t.t.t.Z 6 4 4 4 4 4 4 4 4 4 4 6 p 4 ",
"4 4 4 4 4 4 4 4 4 4 4 4 4 6 p t.t.t.t.t.3.| ^ o.U t.t.t.t.t.t.t.t.t.t.t.t.t.t.t.t.t.t.t.t.t.t.t.t.t.t.M 6 6 4 4 4 4 4 4 4 4 4 6 p 4 ",
"4 4 4 4 4 4 4 4 4 4 4 4 4 6 d t.t.t.t.t.t.t.t.t.t.t.t.t.t.t.t.t.t.t.t.t.t.t.t.t.t.t.t.t.t.t.t.t.t.t.t.I y 2 4 4 4 4 4 4 4 4 4 6 p 4 ",
"4 4 4 4 4 4 4 4 4 4 4 4 6 6 n t.t.t.t.t.t.1.&.A R v t.t.t.t.t.t.t.t.t.t.t.t.t.t.t.t.t.t.t.t.t.t.t.t.t.A H 6 2 4 4 4 4 4 4 4 4 6 p 4 ",
"4 4 4 4 4 4 4 4 4 4 4 4 4 4 a j t.t.t.t.t.4.0.q.>.-.n n t.t.t.t.t.t.t.t.t.t.t.t.t.t.t.t.t.t.t.t.t.t.t.t.} H 6 2 4 4 4 4 4 4 4 6 p 4 ",
"4 4 4 4 4 4 4 4 4 4 4 4 4 4 4 K z t.t.t.t.t.G N ; @ j >.u t.t.t.t.t.t.t.t.t.t.t.t.t.t.t.t.t.t.t.t.t.t.t.t.{ H 6 2 4 4 4 4 4 4 6 p 4 ",
"4 4 4 4 4 4 4 4 4 4 4 4 4 4 4 ; H K t.t.t.t.t.) K a ; ; V n t.t.t.t.t.t.t.t.t.t.t.t.t.t.t.t.t.t.t.t.t.t.t.t.{ H y 2 4 4 4 4 4 6 p 4 ",
"4 4 4 6 ; 6 4 6 6 4 4 4 4 6 4 4 4 H P t.t.t.t.t.~ ~ y 4 1 j c t.t.t.t.t.t.t.t.t.t.t.t.t.t.t.t.t.t.t.t.t.t.t.t.X.A 4 2 4 4 4 4 6 p 4 ",
"y y 6 y r r y y r r y y r 6 y 6 y r M ( t.t.t.t.t.Q ( 6 4 4 a M t.t.t.t.t.t.t.t.t.t.t.t.t.t.t.t.t.t.t.t.t.t.t.t.[ K 4 4 6 6 6 r p 4 ",
"V V V V V V V V V V V V V V V V V H h +.-.t.t.t.t.t.M =.d j a M | t.t.t.t.t.t.t.t.t.t.t.t.t.t.t.t.t.t.t.t.t.t.t.t.' @.r p s p p d $ ",
"4 4 4 4 4 4 4 4 4 4 4 4 4 4 4 4 4 4 4 & 4 4 t.t.t.t.t.4 5 1 r 4 2 2 t.t.t.t.t.t.t.t.t.t.t.t.t.t.t.t.t.t.t.t.t.t.t.t.: y 4 4 4 2 4 r "
};
