/* XPM */
static char *result[] = {
/* columns rows colors chars-per-pixel */
"64 68 215 2 ",
"   c #312813",
".  c #2A2239",
"X  c #4D421A",
"o  c #6F5A13",
"O  c #6D6316",
"+  c #6E5837",
"@  c #7A6F34",
"#  c #7E7726",
"$  c #0F0E43",
"%  c #2A2654",
"&  c #533C58",
"*  c #423673",
"=  c #534B5E",
"-  c #826C16",
";  c #876242",
":  c #837962",
">  c #AB7E75",
",  c #A18A14",
"<  c #9E943E",
"1  c #AF9B32",
"2  c #C1AB2D",
"3  c #C7B13F",
"4  c #A68D41",
"5  c #B39049",
"6  c #B0A265",
"7  c #D99F5D",
"8  c #C1AE42",
"9  c #CFA24A",
"0  c #C3B34B",
"q  c #D6BD49",
"w  c #D2BD50",
"e  c #E3B14F",
"r  c #E39D64",
"t  c #E39D6A",
"y  c #E09568",
"u  c #E19D72",
"i  c #E4A36D",
"p  c #E9A56E",
"a  c #E7AE6F",
"s  c #E8AE6F",
"d  c #EDBF6F",
"f  c #ECB463",
"g  c #E5A572",
"h  c #EBA773",
"j  c #E6AA73",
"k  c #EBAA75",
"l  c #E1A47D",
"z  c #E5AB7A",
"x  c #ECAC7B",
"c  c #F1AC75",
"v  c #F1AE79",
"b  c #ECB373",
"n  c #EBBD74",
"m  c #ECB27D",
"M  c #EDBB7B",
"N  c #E7B478",
"B  c #F3B576",
"V  c #F5B877",
"C  c #F3B37B",
"Z  c #FAB57C",
"A  c #F5BB7C",
"S  c #FBB97E",
"D  c #DBC54D",
"F  c #DFCC57",
"G  c #D3C152",
"H  c #F3C953",
"J  c #ECD957",
"K  c #EDD95A",
"L  c #EDD757",
"P  c #F7D45F",
"I  c #F3DD5C",
"U  c #FADB56",
"Y  c #E3C84E",
"T  c #FEE64C",
"R  c #FFEA4E",
"E  c #FEE555",
"W  c #FFEA56",
"Q  c #FEE65E",
"!  c #FFE95C",
"~  c #D7C466",
"^  c #EFC167",
"/  c #EEC16A",
"(  c #FACB6B",
")  c #F5D364",
"_  c #F4D26D",
"`  c #F6D96F",
"'  c #FBDD6D",
"]  c #FADA63",
"[  c #EEC271",
"{  c #EFCC7E",
"}  c #FBCB75",
"|  c #F1C27C",
" . c #F0CD7D",
".. c #FCCC79",
"X. c #F9C67C",
"o. c #FDDB74",
"O. c #F7DD79",
"+. c #FADF7B",
"@. c #F4D270",
"#. c #FEE761",
"$. c #FEEA62",
"%. c #FCE66B",
"&. c #FEE96A",
"*. c #F4E06C",
"=. c #FBE574",
"-. c #FEEA75",
";. c #F9E47C",
":. c #FCEA79",
">. c #F7E07F",
",. c #5C588F",
"<. c #7E7B9F",
"1. c #A98A9B",
"2. c #A29EA2",
"3. c #B6A9BF",
"4. c #CEAF8F",
"5. c #E2AC83",
"6. c #E2AE8A",
"7. c #EBAE81",
"8. c #E5B184",
"9. c #ECB484",
"0. c #E9BB83",
"q. c #E5B48C",
"w. c #EAB58A",
"e. c #E6B98C",
"r. c #EABB8C",
"t. c #E7B986",
"y. c #F3B681",
"u. c #F4BA83",
"i. c #FABB84",
"p. c #F2BA8B",
"a. c #F8BB8A",
"s. c #E3B795",
"d. c #E5B995",
"f. c #E6BF9B",
"g. c #EBBB94",
"h. c #F0BE92",
"j. c #DDB7B1",
"k. c #ECCB8E",
"l. c #EEC28B",
"z. c #F5C387",
"x. c #F3CE81",
"c. c #FDCC82",
"v. c #F3C38C",
"b. c #FCCB8D",
"n. c #FCC18C",
"m. c #EFD38C",
"M. c #E0D083",
"N. c #F5D181",
"B. c #F9D482",
"V. c #F5DD83",
"C. c #FADC84",
"Z. c #F3D68E",
"A. c #F5DC8A",
"S. c #EAC494",
"D. c #EACB97",
"F. c #E6C19C",
"G. c #E9C49B",
"H. c #EBCA9B",
"J. c #F5C494",
"K. c #FAC291",
"L. c #F3CC94",
"P. c #FAC895",
"I. c #F2CB9D",
"U. c #FACA9B",
"Y. c #F2C19A",
"T. c #EDD296",
"R. c #EFD997",
"E. c #ECD19A",
"W. c #EFD99F",
"Q. c #F3D692",
"!. c #FBD595",
"~. c #F2DB95",
"^. c #F2D39A",
"/. c #F2DB9A",
"(. c #F9DA9E",
"). c #F9DB97",
"_. c #F7E184",
"`. c #F9E481",
"'. c #F7E489",
"]. c #F8E389",
"[. c #FDEB8A",
"{. c #FBE880",
"}. c #EFE19F",
"|. c #F4E194",
" X c #F3E19A",
".X c #EACBA4",
"XX c #E8CDAB",
"oX c #E9C7A3",
"OX c #F1CDA3",
"+X c #F0C7A0",
"@X c #ECD3A3",
"#X c #EEDAA2",
"$X c #EBD3AB",
"%X c #EEDCA9",
"&X c #F6D1A1",
"*X c #F0DCA1",
"=X c #F7D4A8",
"-X c #F2CEB5",
";X c #FCECA9",
":X c #FFF3A1",
">X c #FEF3AF",
",X c #FFF4B0",
"<X c #C4C1D2",
"1X c LightGray",
"2X c #E2DCC0",
"3X c #E5D4D8",
"4X c #FFECC7",
"5X c #FFF8C3",
"6X c #FFFAD8",
"7X c #F4F1D5",
"8X c #FAE8DC",
"9X c #F0F0ED",
"0X c #FDFAF0",
"qX c #EBE7ED",
"wX c None",
/* pixels */
"wXwXwXwXwXwXwXwXwXwXwXwXwXwXwXwXwXwXwXwXwXwXwXwXwXwXwXwXwXwXwXwXwXwXwXwXwXwXwXwXwXwXwXwXwXwXwXwXwXwXwXwXwXwXwXwXwXwXwXwXwXwXwXwX",
"wXwXwXwXwXwXwXwXwXwXwXwXwXwXwXwXwXwXwXwXwXwXwXwXwXwXwXwXwXwXwXwXwXwXwXwXwXwXwXwXwXwXwXwXwXwXwXwXwXwXwXwXwXwXwXwXwXwXwXwXwXwXwXwX",
"wXwXwXwXwXwXwXwXwXwXwXwXwXwXwXwXwXwXwXwXwXwXwXwXwXwXwXwXwXwXwXwXwXwXwXwXwXwXwXwXwXwXwXwXwXwXwXwXwXwXwXwXwXwXwXwXwXwXwXwXwXwXwXwX",
"wXwXwXwXwXwXwXwXwXwXwXwXwXwXwXwXwXwXwXwXwXwXwXwXwXwXwXwXwXwXwXwXwXwXwXwXwXwXwXwXwXwXwXwXwXwXwXwXwXwXwXwXwXwXwXwXwXwXwXwXwXwXwXwX",
"wXwXwXwXwXwXwXwXwXwXwXwXwXwXwXwXwXwXwXwXwXwXwXwXwXwXwXwXwXwXwXwXwXwXwXwXwXwXwXwXwXwXwXwXwXwXwXwXwXwXwXwXwXwXwXwXwXwXwXwXwXwXwXwX",
"wXwXwXwXwXwXwXwXwXwXwXwXwXwXwXwXwXwXwXwXwXwXwXwXwXwXwXwXwXwXwXwXwXwXwXwXwXwXwXwXwXwXwXwXwXwXwXwXwXwXwXwXwXwXwXwXwXwXwXwXwXwXwXwX",
"wXwXwXwXwXwXwXwXwXwXwXwXwXwXwXwXwXwXwXwXwXwXwXwXwXwXwXwXwXwXwXwXwXwXwXwXwXwXwXwXwXwXwXwXwXwXwXwXwXwXwXwXwXwXwXwXwXwXwXwXwXwXwXwX",
"wXwXwXwXwXwXwXwXwXwXwXwXwXwXwXwXwXwXwXwXwXwXwXwXwXwXwXwXwXwXwXwXwXwXwXwXwXwXwXwXwXwXwXwXwXwXwXwXwXwXwXwXwXwXwXwXwXwXwXwXwXwXwXwX",
"wXwXwXwXwXwXwXwXwXwXwXwXwXwXwXwXwXwXwXwXwXwXwXwXwXg g h i t i i u u u u u u u g g t t wXwXwXwXwXwXwXwXwXwXwXwXwXwXwXwXwXwXwXwXwX",
"wXwXwXwXwXwXwXwXwXwXwXwXwXwXwXwXwXwXwXwXwXwXwXwXj g h x j i i g g g u g g i g g g g i g wXwXwXwXwXwXwXwXwXwXwXwXwXwXwXwXwXwXwXwX",
"wXwXwXwXwXwXwXwXwXwXwXwXwXwXwXwXwXwXwXwXwXwXwXwXg g v y.m m m m b b b b b B m A y.m m z wXwXwXwXwXwXwXwXwXwXwXwXwXwXwXwXwXwXwXwX",
"wXwXwXwXwXwXwXwXwXwXwXwXwXwXwXwXwXwXwXwXwXwXwXi g k y.a.a.J.K.v.c...} ( ( } ..c.b.U.h.q.5.wXwXwXwXwXwXwXwXwXwXwXwXwXwXwXwXwXwXwX",
"wXwXwXwXwXwXwXwXwXwXwXwXwXwXwXwXwXg g i i i t t t g 7.p.Y.+XI.Q.B.o.' ] ] ] o.B.!.&X+Xs.6.5.u y t t i wXwXwXwXwXwXwXwXwXwXwXwXwX",
"wXwXwXwXwXwXwXwXwXwXwXwXwXwXwXwXg g g g i g i i t g 5.q.f..X@X/.V.=.#.E E #.=.C./.@X.XF.q.l g g i g i i wXwXwXwXwXwXwXwXwXwXwXwX",
"wXwXwXwXwXwXwXwXwXwXwXwXwXwXwXwXi k C i.y.y.C m b j x r.H.@X#X|.>.%.! W W Q &.`.|.*X@XL.v.| V V u.0.z z wXwXwXwXwXwXwXwXwXwXwXwX",
"wXwXwXwXwXwXwXwXwXwXwXwXwXwXwXi i k S a.K.J.v.z.| / [  .m.~.|.'.:.%.! W ! ! $.:.'.|./.~.N.....c.!.J.q.8.7.wXwXwXwXwXwXwXwXwXwXwX",
"wXwXwXwXwXwXwXwXwXwXwXwXwXg i i t i x p.S.I.H.L.N._ _ _ O.V.>.=.-.$.Q ! ! $.#.-.:.`.`.>.o.' o.B.!.^.F.s.6.g r wXwXwXwXwXwXwXwXwX",
"wXwXwXwXwXwXwXwXwXwXwXwXg j k j i g x e.G..X@X^.V.*.#.#.%.%.%.%.#.$.Q $.Q #.#.$.%.*.%.#.Q #.=.C./.&X.XG.r.x i r wXwXwXwXwXwXwXwX",
"wXwXwXwXwXwXwXwXwXwXwXwXg j C Z m x 8.r.H.@X*X~.`.&.Q ! ! Q Q Q #.#.#.#.#.#.#.Q Q Q ! ! E Q &.`.|.*X@X&XU.v.m k wXwXwXwXwXwXwXwX",
"wXwXwXwXwXwXwXwXwXwXwXi i g C a.u.q.r.D.E.~.|.].:.&.W W W W ! ! Q #.#.#.$.#.#.Q Q W ! W W ! &.:.'.|.(.*X&XJ.r.5.5.wXwXwXwXwXwXwX",
"wXwXwXwXwXwXwXwXwXg g i i j m p.g.F.H.T.R.A.;.=.&.$.$.Q Q Q Q Q #.Q #.#.#.#.#.Q Q Q Q ! ! Q $.%.-.;.A.).(.I.+Xd.8.z h wXwXwXwXwX",
"wXwXwXwXwXwXwXwXg g k x h p z e.F..X@XR._.=.%.#.#.#.#.Q Q Q $.Q #.#.#.#.#.#.#.$.#.Q Q Q $.$.#.$.$.%.=.'./.@X.XH.h.C k t wXwXwXwX",
"wXwXwXwXwXwXwXwXg j c Z c i z e.G.@X#X|.;.%.! W W #.#.Q $.$.#.#.#.#.#.#.#.#.#.#.#.#.$.#.$.Q Q W W E %.;.|.#X@X&XP.y.c t wXwXwXwX",
"wXwXwXwXwXwXwXwXj h c S c i g 0.k.R.|.'.=.#.! E ! #.#.$.#.#.$.Q $.#.#.#.#.#.#.#.#.#.#.W E T R T R W $.-.[.|./.!.b.i.c t wXwXwXwX",
"wXwXwXwXwXwXwXwXj g v Z c g h n { O._.:.&.#.! ! ! #.#.#.#.#.#.#.#.#.#.#.#.#.Q $.#.#.Q E E T T T R W $.-.-.`.C.B.c.V h t wXwXwXwX",
"wXwXwXwXwXwXwXwXg g k C h g a d _ ' %.&.&.#.! #.#.#.#.#.#.$.#.#.#.#.#.#.#.#.#.#.$.$.$.Q E E E E ! Q #.#.&.%.=.o.} B h t wXwXwXwX",
"wXwXwXwXwXwXwXwXg g k v x z N [ ) *.! ! ! #.! #.#.#.#.#.#.#.Q #.#.#.#.#.#.#.#.Q Q Q &.&.-.:.:.:.%.%.#.Q W #.#.' } m z l wXwXwXwX",
"wXwXwXwXwXwXwXi i g x 9.w.q.e.{ ` #.W W ! #.#.#.#.#.#.#.#.#.#.#.Q #.$.#.#.#.#.W ! Q &.[.:X,X,X:XA.o.] U U W #.o.B.l.e.s.5.wXwXwX",
"wXwXwXwXwXg g i i g z 9.d.F.D.m.>.#.! W ! ! #.#.#.#.#.#.$.#.$.#.#.#.#.#.#.#.#.E T E -.:X5X6X8X4X=XB.( H U W #.=.Z.H.G.s.q.z g t ",
"wXwXwXwXg g g p g i z e.F..X@XR.+.%.! W ! Q #.#.#.#.#.$.#.#.#.#.$.#.#.#.#.#.Q T T E ;.,X6X0X0X8X-Xp.f H H Q %.].~.@X.Xf.q.x g i ",
"wXwXwXwXg x B C c g z t.S.E.W.|._.%.! ! Q #.#.#.#.#.#.#.#.#.#.#.#.#.$.Q #.#.Q W T W ;.;X7X9XqX3Xj.5.7 e H E &.{.|.*X@XH.r.m x k ",
"wXwXwXwXj C Z Z c h z 0.D.R.|.'.;.%.! ! Q #.#.#.! #.#.#.$.Q #.#.#.#.#.#.#.$.Q E W Q =.#X2X1X<X3.1.> 5 9 Y I &.:.[.|./.Q.v.A Z c ",
"wXwXwXwXg v v Z x j j n x.V.`.:.-.#.Q Q $.Q #.#.#.#.$.#.#.#.#.#.#.Q $.Q #.#.$.! W $.%.M.4.2.1.,.* & + 5 G I $.-.:.:._.x.| N k h ",
"wXwXwXwXg k k c k l a [ ` *.&.$.#.$.#.#.Q #.#.#.#.#.Q #.#.#.#.#.#.#.#.$.#.#.$.Q $.$.I ~ 6 : = % $ . + 4 G K $.&.&.&.*.@.[ N g g ",
"wXwXwXwXg k x x x g a / ) Q ! $.$.#.#.#.#.#.#.#.#.#.#.#.Q $.#.#.#.Q $.Q $.$.$.$.$.$.K w 1 # X     X @ 5 G K $.$.$.! ! *./ j g u ",
"wXwXwXwXg x x v k g a ^ P U W W ! Q #.$.#.#.#.Q $.#.#.#.#.#.#.#.Q Q Q ! ! Q Q ! $.$.I D 2 , O O O # < 0 F $.$.W W W W K ^ s l u ",
"wXwXwXwXj g x c x h k / P E E W ! Q $.$.#.#.#.$.#.Q #.#.#.#.#.Q ! ! ! W W ! ! ! Q $.Q L D D 3 8 8 0 G F K $.! $.W W E ) ^ s g g ",
"wXwXwXwXg k k x h u a d ) #.Q ! Q $.#.#.#.#.#.#.#.#.#.#.#.#.#.#.Q Q Q Q Q Q Q Q $.#.Q Q J I J J K K I I I $.$.! ! Q Q ) / s g u ",
"wXwXwXwXg k x v x g j / _ *.%.&.$.$.Q $.#.#.#.#.#.$.#.Q Q #.#.#.#.%.%.=.=.%.%.&.&.$.$.$.W $.$.$.$.$.$.$.$.$.$.&.&.&.*._ [ j g u ",
"wXwXwXwXh v v Z c g N M  .V.;.;.-.#.Q Q $.Q #.#.#.$.Q Q Q W #.%.=._._._._._.;.=.&.$.W W $.$.$.$.$.$.$.$.$.$.$.*.:.`.V.N.| C x h ",
"wXwXwXwXj C Z Z c h j 0.k.R.|.'.;.%.Q Q Q Q $.#.#.#.Q ! W W $.-._.|./.W.W. X~.'.=.#.W W ! $.$.$.$.$.$.Q Q $.%.=.'.|.R.L.v.C B k ",
"wXwXwXwXh k x c c g z e.G.@X#X|.`.%.#.W Q $.#.#.#.#.Q Q W W %.>.~.W.#X$X$X@XW.A.>.#.Q W Q Q $.$.$.$.$.Q ! #.%.`.|.#X@XH.e.m h h ",
"wXwXwXwXj j h k h h z q.F..XE.R.+.*.W Q ! $.#.#.#.#.#.#.#.%.=.C./.@X$XXXXXXX@XR.V.=.%.$.#.#.#.#.$.Q #.Q W Q %.+.~.@X.XF.q.z i t ",
"wXwXwXwXwXj h p i g z w.s.F.D.m.O.%.W W ! Q #.Q Q #.#.-.=.`.A.~.^.I..XoXoXF.G.T.R.A.;.=.=.#.Q #.Q $.#.Q W W %.=.Z.H.G.d.6.z i i ",
"wXwXwXwXwXwXwXi i g x 9.q.q.t.{ ` #.W W ! Q Q Q #.Q %.=.'.|./.^.L.J.h.w.w.w.r.S.D.R.~.'.=.&.#.W Q Q $.! W ! #.o.N.l.w.6.5.wXwXwX",
"wXwXwXwXwXwXwXwXg g k v x z N [ _ #.Q ! Q $.$.Q W Q %.`.|.#X@XG.h.u.m k k z 8.e.H.@X#X|._.%.Q W Q $.Q Q Q ! #.' } M x l wXwXwXwX",
"wXwXwXwXwXwXwXwXg g c c k g a d _ ' %.&.$.Q Q W W Q %.`.~.@X.XoXq.z h i i i k w.F..XE.R.;.%.W ! ! Q $.$.&.&.' o.X.C k u wXwXwXwX",
"wXwXwXwXwXwXwXwXg g k Z c u j n { V.`.:.&.$.! W E W %.=.~.H.f.s.8.z r r r i j 8.d.f.D.m.O.%.W E W Q #.&.:.`.C.C.c.V h t wXwXwXwX",
"wXwXwXwXwXwXwXwXj k B Z c i k 0.S.R.|.'.-.$.W R R W &.' B.v.d.6.5.wXwXr i i x 7.8.q.l.{ ` #.W W R W #.=.'.|.~.!.P.i.c t wXwXwXwX",
"wXwXwXwXwXwXwXwXg k v Z c g z e.D..XW.|._.#.W W W W #.' ..S x l wXwXwXwXi h k x z l N [ _ #.W W W W &.`.|.*X*X&XP.i.v t wXwXwXwX",
"wXwXwXwXwXwXwXwXg j k j p i z e.F..X@XR._.=.%.%.%.&.o.o.} B g u wXwXwXwXg k k c x g a / _ ' &.&.%.%.=.'./.@X.XG.p.m k i wXwXwXwX",
"wXwXwXwXwXwXwXwXwXg g i i h m p.g.f.D.T.R.V.;.`.{.`.V.B.X.B p y wXwXwXwXg k x c h i i n { >.`.].`.`.`.~.(.OXG.d.8.z i wXwXwXwXwX",
"wXwXwXwXwXwXwXwXwXwXwXg i j y.i.9.r.r.S.T.R./. X X X/.Q.z.Z h t wXwXwXwXj j k c h i j 0.k.Q. X X X X/.(.(.U.h.8.z wXwXwXwXwXwXwX",
"wXwXwXwXwXwXwXwXwXwXwXwXg j x C k x 8.r.D.@X%X%X%X#X&XL.v.y.h r wXwXwXwXg k k c c i z t.D.E.#X%X%X*X@XL.L.p.x j wXwXwXwXwXwXwXwX",
"wXwXwXwXwXwXwXwXwXwXwXwXg g g p i i z 9.S..X$X$X$X$X.XI.v.y.k t wXwXwXwXj k x c c p z 9.G..X$X$X$XXX.XF.t.j i r wXwXwXwXwXwXwXwX",
"wXwXwXwXwXwXwXwXwXwXwXwXwXg i i i i C p.J.I.OXOXXXOXI.U.K.i.k i wXwXwXwXg v V Z V c m r.S.+XOX&X=X=XG.e.8.g r wXwXwXwXwXwXwXwXwX",
"wXwXwXwXwXwXwXwXwXwXwXwXwXwXwXg i k Z i.n.J.J.J.J.J.K.K.n.z.x i wXwXwXwXg C Z i.S C C u.p.J.J.U.&XJ.e.8.7.wXwXwXwXwXwXwXwXwXwXwX",
"wXwXwXwXwXwXwXwXwXwXwXwXwXwXwXwXi k C C C m m m 9.m m C V m k g wXwXwXwXg x c C C k k x x m m 9.i.y.z z wXwXwXwXwXwXwXwXwXwXwXwX",
"wXwXwXwXwXwXwXwXwXwXwXwXwXwXwXwXg j x h g g i i i g i g h k j g wXwXwXwXg g j h k g g g i i i i k h i i wXwXwXwXwXwXwXwXwXwXwXwX",
"wXwXwXwXwXwXwXwXwXwXwXwXwXwXwXwXwXj g g i i t i i i i i h g g wXwXwXwXwXwXg g j j g i g i i i i p p i wXwXwXwXwXwXwXwXwXwXwXwXwX",
"wXwXwXwXwXwXwXwXwXwXwXwXwXwXwXwXwXwXwXwXwXwXwXwXwXwXwXwXwXwXwXwXwXwXwXwXwXwXwXwXwXwXwXwXwXwXwXwXwXwXwXwXwXwXwXwXwXwXwXwXwXwXwXwX",
"wXwXwXwXwXwXwXwXwXwXwXwXwXwXwXwXwXwXwXwXwXwXwXwXwXwXwXwXwXwXwXwXwXwXwXwXwXwXwXwXwXwXwXwXwXwXwXwXwXwXwXwXwXwXwXwXwXwXwXwXwXwXwXwX",
"wXwXwXwXwXwXwXwXwXwXwXwXwXwXwXwXwXwXwXwXwXwXwXwXwXwXwXwXwXwXwXwXwXwXwXwXwXwXwXwXwXwXwXwXwXwXwXwXwXwXwXwXwXwXwXwXwXwXwXwXwXwXwXwX",
"wXwXwXwXwXwXwXwXwXwXwXwXwXwXwXwXwXwXwXwXwXwXwXwXwXwXwXwXwXwXwXwXwXwXwXwXwXwXwXwXwXwXwXwXwXwXwXwXwXwXwXwXwXwXwXwXwXwXwXwXwXwXwXwX",
"wXwXwXwXwXwXwXwXwXwXwXwXwXwXwXwXwXwXwXwXwXwXwXwXwXwXwXwXwXwXwXwXwXwXwXwXwXwXwXwXwXwXwXwXwXwXwXwXwXwXwXwXwXwXwXwXwXwXwXwXwXwXwXwX",
"wXwXwXwXwXwXwXwXwXwXwXwXwXwXwXwXwXwXwXwXwXwXwXwXwXwXwXwXwXwXwXwXwXwXwXwXwXwXwXwXwXwXwXwXwXwXwXwXwXwXwXwXwXwXwXwXwXwXwXwXwXwXwXwX",
"wXwXwXwXwXwXwXwXwXwXwXwXwXwXwXwXwXwXwXwXwXwXwXwXwXwXwXwXwXwXwXwXwXwXwXwXwXwXwXwXwXwXwXwXwXwXwXwXwXwXwXwXwXwXwXwXwXwXwXwXwXwXwXwX",
"wXwXwXwXwXwXwXwXwXwXwXwXwXwXwXwXwXwXwXwXwXwXwXwXwXwXwXwXwXwXwXwXwXwXwXwXwXwXwXwXwXwXwXwXwXwXwXwXwXwXwXwXwXwXwXwXwXwXwXwXwXwXwXwX"
};
