/* XPM */
static char *result[] = {
/* columns rows colors chars-per-pixel */
"64 68 215 2 ",
"   c #312813",
".  c #2A2239",
"X  c #4D421A",
"o  c #6F5A13",
"O  c #6D6316",
"+  c #6E5837",
"@  c #7A6F34",
"#  c #7E7726",
"$  c #0F0E43",
"%  c #2A2654",
"&  c #533C58",
"*  c #423673",
"=  c #534B5E",
"-  c #826C16",
";  c #876242",
":  c #837962",
">  c #AB7E75",
",  c #A18A14",
"<  c #9E943E",
"1  c #AF9B32",
"2  c #C1AB2D",
"3  c #C7B13F",
"4  c #A68D41",
"5  c #B39049",
"6  c #B0A265",
"7  c #D99F5D",
"8  c #C1AE42",
"9  c #CFA24A",
"0  c #C3B34B",
"q  c #D6BD49",
"w  c #D2BD50",
"e  c #E3B14F",
"r  c #E39D64",
"t  c #E39D6A",
"y  c #E09568",
"u  c #E19D72",
"i  c #E4A36D",
"p  c #E9A56E",
"a  c #E7AE6F",
"s  c #E8AE6F",
"d  c #EDBF6F",
"f  c #ECB463",
"g  c #E5A572",
"h  c #EBA773",
"j  c #E6AA73",
"k  c #EBAA75",
"l  c #E1A47D",
"z  c #E5AB7A",
"x  c #ECAC7B",
"c  c #F1AC75",
"v  c #F1AE79",
"b  c #ECB373",
"n  c #EBBD74",
"m  c #ECB27D",
"M  c #EDBB7B",
"N  c #E7B478",
"B  c #F3B576",
"V  c #F5B877",
"C  c #F3B37B",
"Z  c #FAB57C",
"A  c #F5BB7C",
"S  c #FBB97E",
"D  c #DBC54D",
"F  c #DFCC57",
"G  c #D3C152",
"H  c #F3C953",
"J  c #ECD957",
"K  c #EDD95A",
"L  c #EDD757",
"P  c #F7D45F",
"I  c #F3DD5C",
"U  c #FADB56",
"Y  c #E3C84E",
"T  c #FEE64C",
"R  c #FFEA4E",
"E  c #FEE555",
"W  c #FFEA56",
"Q  c #FEE65E",
"!  c #FFE95C",
"~  c #D7C466",
"^  c #EFC167",
"/  c #EEC16A",
"(  c #FACB6B",
")  c #F5D364",
"_  c #F4D26D",
"`  c #F6D96F",
"'  c #FBDD6D",
"]  c #FADA63",
"[  c #EEC271",
"{  c #EFCC7E",
"}  c #FBCB75",
"|  c #F1C27C",
" . c #F0CD7D",
".. c #FCCC79",
"X. c #F9C67C",
"o. c #FDDB74",
"O. c #F7DD79",
"+. c #FADF7B",
"@. c #F4D270",
"#. c #FEE761",
"$. c #FEEA62",
"%. c #FCE66B",
"&. c #FEE96A",
"*. c #F4E06C",
"=. c #FBE574",
"-. c #FEEA75",
";. c #F9E47C",
":. c #FCEA79",
">. c #F7E07F",
",. c #5C588F",
"<. c #7E7B9F",
"1. c #A98A9B",
"2. c #A29EA2",
"3. c #B6A9BF",
"4. c #CEAF8F",
"5. c #E2AC83",
"6. c #E2AE8A",
"7. c #EBAE81",
"8. c #E5B184",
"9. c #ECB484",
"0. c #E9BB83",
"q. c #E5B48C",
"w. c #EAB58A",
"e. c #E6B98C",
"r. c #EABB8C",
"t. c #E7B986",
"y. c #F3B681",
"u. c #F4BA83",
"i. c #FABB84",
"p. c #F2BA8B",
"a. c #F8BB8A",
"s. c #E3B795",
"d. c #E5B995",
"f. c #E6BF9B",
"g. c #EBBB94",
"h. c #F0BE92",
"j. c #DDB7B1",
"k. c #ECCB8E",
"l. c #EEC28B",
"z. c #F5C387",
"x. c #F3CE81",
"c. c #FDCC82",
"v. c #F3C38C",
"b. c #FCCB8D",
"n. c #FCC18C",
"m. c #EFD38C",
"M. c #E0D083",
"N. c #F5D181",
"B. c #F9D482",
"V. c #F5DD83",
"C. c #FADC84",
"Z. c #F3D68E",
"A. c #F5DC8A",
"S. c #EAC494",
"D. c #EACB97",
"F. c #E6C19C",
"G. c #E9C49B",
"H. c #EBCA9B",
"J. c #F5C494",
"K. c #FAC291",
"L. c #F3CC94",
"P. c #FAC895",
"I. c #F2CB9D",
"U. c #FACA9B",
"Y. c #F2C19A",
"T. c #EDD296",
"R. c #EFD997",
"E. c #ECD19A",
"W. c #EFD99F",
"Q. c #F3D692",
"!. c #FBD595",
"~. c #F2DB95",
"^. c #F2D39A",
"/. c #F2DB9A",
"(. c #F9DA9E",
"). c #F9DB97",
"_. c #F7E184",
"`. c #F9E481",
"'. c #F7E489",
"]. c #F8E389",
"[. c #FDEB8A",
"{. c #FBE880",
"}. c #EFE19F",
"|. c #F4E194",
" X c #F3E19A",
".X c #EACBA4",
"XX c #E8CDAB",
"oX c #E9C7A3",
"OX c #F1CDA3",
"+X c #F0C7A0",
"@X c #ECD3A3",
"#X c #EEDAA2",
"$X c #EBD3AB",
"%X c #EEDCA9",
"&X c #F6D1A1",
"*X c #F0DCA1",
"=X c #F7D4A8",
"-X c #F2CEB5",
";X c #FCECA9",
":X c #FFF3A1",
">X c #FEF3AF",
",X c #FFF4B0",
"<X c #C4C1D2",
"1X c LightGray",
"2X c #E2DCC0",
"3X c #E5D4D8",
"4X c #FFECC7",
"5X c #FFF8C3",
"6X c #FFFAD8",
"7X c #F4F1D5",
"8X c #FAE8DC",
"9X c #F0F0ED",
"0X c #FDFAF0",
"qX c #EBE7ED",
"wX c None",
/* pixels */
"wXwXwXwXwXwXwXwXwXwXwXwXwXwXwXwXwXwXwXwXwXwXwXwXwXwXwXwXwXwXwXwXwXwXwXwXwXwXwXwXwXwXwXwXwXwXwXwXwXwXwXwXwXwXwXwXwXwXwXwXwXwXwXwX",
"wXwXwXwXwXwXwXwXwXwXwXwXwXwXwXwXwXwXwXwXwXwXwXwXwXwXwXwXwXwXwXwXwXwXwXwXwXwXwXwXwXwXwXwXwXwXwXwXwXwXwXwXwXwXwXwXwXwXwXwXwXwXwXwX",
"wXwXwXwXwXwXwXwXwXwXwXwXwXwXwXwXwXwXwXwXwXwXwXwXwXwXwXwXwXwXwXwXwXwXwXwXwXwXwXwXwXwXwXwXwXwXwXwXwXwXwXwXwXwXwXwXwXwXwXwXwXwXwXwX",
"wXwXwXwXwXwXwXwXwXwXwXwXwXwXwXwXwXwXwXwXwXwXwXwXwXwXwXwXwXwXwXwXwXwXwXwXwXwXwXwXwXwXwXwXwXwXwXwXwXwXwXwXwXwXwXwXwXwXwXwXwXwXwXwX",
"wXwXwXwXwXwXwXwXwXwXwXwXwXwXwXwXwXwXwXwXwXwXwXwXwXwXwXwXwXwXwXwXwXwXwXwXwXwXwXwXwXwXwXwXwXwXwXwXwXwXwXwXwXwXwXwXwXwXwXwXwXwXwXwX",
"wXwXwXwXwXwXwXwXwXwXwXwXwXwXwXwXwXwXwXwXwXwXwXwXwXwXwXwXwXwXwXwXwXwXwXwXwXwXwXwXwXwXwXwXwXwXwXwXwXwXwXwXwXwXwXwXwXwXwXwXwXwXwXwX",
"wXwXwXwXwXwXwXwXwXwXwXwXwXwXwXwXwXwXwXwXwXwXwXwXwXwXwXwXwXwXwXwXwXwXwXwXwXwXwXwXwXwXwXwXwXwXwXwXwXwXwXwXwXwXwXwXwXwXwXwXwXwXwXwX",
"wXwXwXwXwXwXwXwXwXwXwXwXwXwXwXwXwXwXwXwXwXwXwXwXwXwXwXwXwXwXwXwXwXwXwXwXwXwXwXwXwXwXwXwXwXwXwXwXwXwXwXwXwXwXwXwXwXwXwXwXwXwXwXwX",
"wXwXwXwXwXwXwXwXwXwXwXwXwXi p p i i i i i g g j g g g wXwXwXwXwXwXg j g i i i i i i i i g h g wXwXwXwXwXwXwXwXwXwXwXwXwXwXwXwXwX",
"wXwXwXwXwXwXwXwXwXwXwXwXi i h h g i i i g g g j k g g j wXwXwXwXg j k j g g i i i i i p k k j g wXwXwXwXwXwXwXwXwXwXwXwXwXwXwXwX",
"wXwXwXwXwXwXwXwXwXwXwXwXz z A u.9.x m x k k k C C x k g wXwXwXwXi k C C C m x 9.9.m b C C C h i wXwXwXwXwXwXwXwXwXwXwXwXwXwXwXwX",
"wXwXwXwXwXwXwXwXwXwXwX5.8.w.U.U.U.J.J.a.p.C Z A S S C g wXwXwXwXi C i.n.K.J.J.J.J.J.J.a.i.S s i i wXwXwXwXwXwXwXwXwXwXwXwXwXwXwX",
"wXwXwXwXwXwXwXwXwXr g 8.e.S..X=X=X.XI.S.p.m c B Z Z m g wXwXwXwXi k i.K.U.I.OXOXOXOXI.J.p.v h i i g g wXwXwXwXwXwXwXwXwXwXwXwXwX",
"wXwXwXwXwXwXwXwXr i j w.F..X$X$X$X$XoXS.t.z h c c c k p wXwXwXwXi k u.K.I..X$X$X$XXXoXS.t.z i i i g g g wXwXwXwXwXwXwXwXwXwXwXwX",
"wXwXwXwXwXwXwXwXj x p.L.^.@X%X%X%X%XE.S.t.j h h c k j j wXwXwXwXr j C v.I.@X%X%X%X%XE.H.r.8.k x C v j g wXwXwXwXwXwXwXwXwXwXwXwX",
"wXwXwXwXwXwXwXz w.g.P.(.(.). X X X XR.k.0.j i h c x j j wXwXwXwXy g A z.b.~. X X X X/.T.S.r.r.9.i.y.j i g wXwXwXwXwXwXwXwXwXwXwX",
"wXwXwXwXwXi z 8.d.G.OX(.~.].;.`.{.`.V.{ n a t h c k k k wXwXwXwXy p V X.O.V.`.{.;._.V.R.E.H.F.d.r.9.g i i g g wXwXwXwXwXwXwXwXwX",
"wXwXwXwXi h 9.e.G.oX@X).'.=.%.&.&.%.*._ d a g k v k k j wXwXwXwXu h V } o.=.%.&.&.%.=._.R.E.oXf.w.x i p j k g j wXwXwXwXwXwXwXwX",
"wXwXwXwXi c i.P.&X*X*X|._.&.W W W W #._ [ N z x x k p i wXwXwXwXl x A ..o.] W W W W %.>.|.#X@XG.r.z g c Z c k g wXwXwXwXwXwXwXwX",
"wXwXwXwXt c S b.).).|.].=.#.W R W W #.` { r.6.w.x h p i r wXwX5.6.s.v.B.o.#.W W R W $.:.`.|.R.k.0.j p c Z C j g wXwXwXwXwXwXwXwX",
"wXwXwXwXt h Z X.B.C.`.:.%.#.W W W ! #.O.Z.H.f.d.w.g i r r r j 6.s.oXH.Q.>.#.W W W ! $.&.:.`.V.x.n p u c Z h g g wXwXwXwXwXwXwXwX",
"wXwXwXwXu h B ..o.%.%.&.$.#.Q ! W Q %.>.~.E..Xf.e.j i i i j x e.f.oX*X~._.%.Q W W Q $.$.&.%.*._ [ a g k Z k g g wXwXwXwXwXwXwXwX",
"wXwXwXwX5.x C } ' Q Q ! $.$.$.Q E Q %._.|.#X@XG.e.8.z k k v 9.J..X*X*X~.;.%.E Q W $.#.Q ! ! #._ [ N z x v x g g wXwXwXwXwXwXwXwX",
"wXwXwX5.6.e.l.N.O.$.W W Q Q $.! ! Q %.=.'.|.R.T.S.d.q.w.r.h.J.L.^.~.~.].;.%.#.Q #.$.Q ! W E #.@.{ t.q.w.7.k g g i wXwXwXwXwXwXwX",
"i g z 6.s.F.D.Z.;.#.Q W ! $.! Q Q ! #.=.;.>.A.R.T.H.F.oXoX+XOX^.Q.].;.=.%.&.Q Q ! #.#.W W ! #.O.m.D.f.d.w.k i p g j j wXwXwXwXwX",
"t g z q.F..X@X~._.%.Q Q ! $.$.$.#.#.#.#.#.#.=.V.R.H.XXXXXXXX@X~.V.=.%.#.&.Q #.Q #.#.#.! W ! %.>.R.@X.Xf.e.z g h k k h g wXwXwXwX",
"p k z r.G.@X#X|.`.%.Q W ! $.$.$.#.&.#.W W ! $.>.'.W.@X$X$X%XW.A.;.%.Q W ! #.#.#.#.#.#.! ! ! %.`.R.W.@XG.e.z h k c c k j wXwXwXwX",
"c v M z.Q.R.|.'.;.%.Q ! $.$.$.$.$.$.$.! W ! #.=._.~. XW.}.R.~.'.=.#.E W W ! #.#.#.#.#.! Q #.%.;.`.|.R.k.t.j h c Z Z C j wXwXwXwX",
"h x C |  ._.`.;.%.&.#.Q $.$.$.$.$.$.$.$.W $.$.*.;.>._.'.V._.>.=.%.#.! W #.Q #.#.#.#.#.! Q #.&.-.:.`.V.{ M N g c C Z x j wXwXwXwX",
"u h j [ @.%.&.&.&.#.#.#.$.$.$.$.$.$.$.! ! $.$.#.%.%.%.=.%.%.%.%.%.#.#.! #.#.#.#.#.#.#.#.#.! #.$.&.&.*._ [ a g x v k k g wXwXwXwX",
"u g j / ) #.Q ! W #.#.Q I K K K J J I E Q $.$.$.Q $.Q #.Q #.#.#.! #.#.#.#.#.#.#.#.#.#.#.#.#.#.! ! Q #.) / k g x x k k g wXwXwXwX",
"u g a ^ P E W W ! #.#.K F G 0 8 8 3 q D J I ! $.! W W W W W W Q Q #.#.#.#.#.#.#.#.#.#.#.#.#.#.! W E E P ^ k u k v k k g wXwXwXwX",
"u g a ^ P ! W W ! #.Q F 0 < @ o O O , 2 D I $.$.$.! ! ! W ! ! #.#.#.#.#.#.#.#.#.#.#.#.#.#.#.#.W W W E P / a g k v x k g wXwXwXwX",
"u g a / ) ! ! $.$.$.K G 4 @ X     X # 1 G Q $.$.$.#.#.#.#.#.#.! #.#.#.#.#.#.#.#.#.#.#.#.#.#.! ! $.! Q ) / a g x v k k g wXwXwXwX",
"g g b [ @.*.%.&.&.$.K w 4 + . $ % = : 6 ~ *.#.$.$.$.#.#.#.#.#.#.#.#.#.#.#.#.! #.#.#.#.#.#.#.#.&.&.%.` _ [ a g k v c k g wXwXwXwX",
"k k m |  .'.{.:.&.&.I G 5 ; & * ,.1.2.4.{ *.W W ! ! #.#.#.#.#.#.#.#.#.#.#.#.#.#.#.#.! #.! #.&.%.:.;.V.x.M j g v y.v x g wXwXwXwX",
"v v u.z.Q.~.~.[.:.&.! Y 9 5 > 1.3.<X1X2X}.=.Q W W Q #.#.#.#.#.#.#.#.#.#.#.#.#.#.#.#.! Q ! #.&.;.'.|.R.k.0.z h c Z Z C j wXwXwXwX",
"c v y.r.H.@X*X|.{.&.U L e 7 6.j.1XqXqX7X>X:.E T W ! #.#.#.#.#.#.$.#.#.#.#.#.$.#.#.#.#.! W W %.;.|.#X@XS.t.z j k c C x j wXwXwXwX",
"i g z q.F..X@X~._.%.E U H f p.-X8X0X0X6X,X:.E T E Q #.#.#.#.#.! #.#.! #.#.#.#.#.#.#.#.! W Q *.>.R.@X.XF.e.z i i p j g g wXwXwXwX",
"t g z q.s.F.I.Z.;.#.E U H ( N.=X4X6X6X,X:X-.E T E ! #.#.#.#.#.$.#.#.#.#.#.#.#.#.#.#.#.#.W W %.O.m.D.f.s.t.z g i i g g wXwXwXwXwX",
"wXwXwX5.q.s.v.N.o.#.E E U ) o.A.;X,X,X:X[.-.! W W #.#.#.#.#.#.#.#.#.#.#.#.#.#.#.#.! #.! W ! $.`  .r.q.6.9.k g g g wXwXwXwXwXwXwX",
"wXwXwXwXl z M } ' #.! ! Q #.%.-.:.:.:.:.&.$.! #.#.#.#.#.#.#.#.#.#.#.$.#.#.#.#.#.#.$.#.! ! ! #._ [ m l x v k g j wXwXwXwXwXwXwXwX",
"wXwXwXwXt h B } o.o.&.&.&.#.! W W E E E ! #.#.#.#.#.#.#.#.#.#.#.#.#.! #.#.#.#.#.#.#.$.$.$.%.` _ d s g c v x g g wXwXwXwXwXwXwXwX",
"wXwXwXwXt k Z c.C.V.;.:.%.#.W R R T T T Q #.#.#.#.#.#.#.#.#.#.#.#.#.#.#.#.#.#.#.W W &.%.;.;.V.{ n k i c Z v g g wXwXwXwXwXwXwXwX",
"wXwXwXwXt c Z b.!.^.|.].-.#.W R R T T E Q Q #.#.#.#.#.#.! #.#.#.#.#.#.#.#.#.#.W W W #.;.`.|.R.k.M z i c Z B g j wXwXwXwXwXwXwXwX",
"wXwXwXwXt v y.P.&X*X*X|.;.&.W W Q ! #.#.Q Q #.#.#.#.#.#.#.#.#.#.#.#.#.#.#.#.#.! W Q #.>.|.%X@XS.e.z i c Z c g g wXwXwXwXwXwXwXwX",
"wXwXwXwXt k y.h..X.X@X).'.=.%.#.#.#.#.#.#.#.#.#.#.#.#.#.#.#.#.#.#.#.#.#.! ! #.$.#.%.=.'.~.@X.XF.r.z p h k k g g wXwXwXwXwXwXwXwX",
"wXwXwXwXwXt z w.d.G.&X(.~.A.;.=.&.&.! ! ! ! ! ! ! #.#.#.#.#.#.#.! ! ! ! ! $.$.%.;.;.A.Q.E.H.F.g.r.m a i g g g wXwXwXwXwXwXwXwXwX",
"wXwXwXwXwXwXwX5.8.r.I.(.(.(.|.`.:.%.W W ! W W Q Q #.#.#.#.#.#.! ! ! W W W ! &.:.'.|./.D.D.e.w.w.i.C g i i wXwXwXwXwXwXwXwXwXwXwX",
"wXwXwXwXwXwXwXwXk x p.U.&X@X*X X{.%.! W ! ! Q ! #.#.#.#.#.#.#.#.Q ! #.W W W %._.|.#X@XH.e.9.x C Z C g g wXwXwXwXwXwXwXwXwXwXwXwX",
"wXwXwXwXwXwXwXwXt i x e.G.oX*X/._.%.#.#.%.%.%.%.&.#.#.! #.#.#.#.%.%.%.%.#.] %.V.~.@X.XG.e.x g i j k j g wXwXwXwXwXwXwXwXwXwXwXwX",
"wXwXwXwXwXwXwXwXwXr g 5.d.F.OX!.B.} ' =.;.V._.=.%.&.! ! W #.&.%.;._._.O.` _ _  .L.H.+Xh.p.m i r i g g wXwXwXwXwXwXwXwXwXwXwXwXwX",
"wXwXwXwXwXwXwXwXwXwXwX5.8.q.L.P.......B.~.).|.].:.&.! W W ! %.:.`.|.~.m.{ / [ | z.J.K.K.n.i.k i i wXwXwXwXwXwXwXwXwXwXwXwXwXwXwX",
"wXwXwXwXwXwXwXwXwXwXwXwXz z M i.A Z u.v.H.@X*X|._.&.W W W ! %._.|.#X@XH.l.m s k m m y.y.y.C k i wXwXwXwXwXwXwXwXwXwXwXwXwXwXwXwX",
"wXwXwXwXwXwXwXwXwXwXwXwXi i g i t u z q.F..X@X~.V.=.Q U Q Q %.C.R.@XoXF.w.l u i i i i j g g g g wXwXwXwXwXwXwXwXwXwXwXwXwXwXwXwX",
"wXwXwXwXwXwXwXwXwXwXwXwXwXi t t y u 5.6.d.H.OX).C.o.' ] ] ' o.B.Q.I.+XY.h.x g i t t t i i g g wXwXwXwXwXwXwXwXwXwXwXwXwXwXwXwXwX",
"wXwXwXwXwXwXwXwXwXwXwXwXwXwXwXwXwXwXwX5.e.h.P.b.c...} } ( } } c.b.J.J.h.a.Z h g i wXwXwXwXwXwXwXwXwXwXwXwXwXwXwXwXwXwXwXwXwXwXwX",
"wXwXwXwXwXwXwXwXwXwXwXwXwXwXwXwXwXwXwXwXz x 9.C A b b b b b b x m x m m y.v h g wXwXwXwXwXwXwXwXwXwXwXwXwXwXwXwXwXwXwXwXwXwXwXwX",
"wXwXwXwXwXwXwXwXwXwXwXwXwXwXwXwXwXwXwXwXg i g h h g u g g g i g g i i j x j g g wXwXwXwXwXwXwXwXwXwXwXwXwXwXwXwXwXwXwXwXwXwXwXwX",
"wXwXwXwXwXwXwXwXwXwXwXwXwXwXwXwXwXwXwXwXwXi t g u g u u u u u g i i t i g g g wXwXwXwXwXwXwXwXwXwXwXwXwXwXwXwXwXwXwXwXwXwXwXwXwX",
"wXwXwXwXwXwXwXwXwXwXwXwXwXwXwXwXwXwXwXwXwXwXwXwXwXwXwXwXwXwXwXwXwXwXwXwXwXwXwXwXwXwXwXwXwXwXwXwXwXwXwXwXwXwXwXwXwXwXwXwXwXwXwXwX",
"wXwXwXwXwXwXwXwXwXwXwXwXwXwXwXwXwXwXwXwXwXwXwXwXwXwXwXwXwXwXwXwXwXwXwXwXwXwXwXwXwXwXwXwXwXwXwXwXwXwXwXwXwXwXwXwXwXwXwXwXwXwXwXwX",
"wXwXwXwXwXwXwXwXwXwXwXwXwXwXwXwXwXwXwXwXwXwXwXwXwXwXwXwXwXwXwXwXwXwXwXwXwXwXwXwXwXwXwXwXwXwXwXwXwXwXwXwXwXwXwXwXwXwXwXwXwXwXwXwX",
"wXwXwXwXwXwXwXwXwXwXwXwXwXwXwXwXwXwXwXwXwXwXwXwXwXwXwXwXwXwXwXwXwXwXwXwXwXwXwXwXwXwXwXwXwXwXwXwXwXwXwXwXwXwXwXwXwXwXwXwXwXwXwXwX",
"wXwXwXwXwXwXwXwXwXwXwXwXwXwXwXwXwXwXwXwXwXwXwXwXwXwXwXwXwXwXwXwXwXwXwXwXwXwXwXwXwXwXwXwXwXwXwXwXwXwXwXwXwXwXwXwXwXwXwXwXwXwXwXwX",
"wXwXwXwXwXwXwXwXwXwXwXwXwXwXwXwXwXwXwXwXwXwXwXwXwXwXwXwXwXwXwXwXwXwXwXwXwXwXwXwXwXwXwXwXwXwXwXwXwXwXwXwXwXwXwXwXwXwXwXwXwXwXwXwX",
"wXwXwXwXwXwXwXwXwXwXwXwXwXwXwXwXwXwXwXwXwXwXwXwXwXwXwXwXwXwXwXwXwXwXwXwXwXwXwXwXwXwXwXwXwXwXwXwXwXwXwXwXwXwXwXwXwXwXwXwXwXwXwXwX",
"wXwXwXwXwXwXwXwXwXwXwXwXwXwXwXwXwXwXwXwXwXwXwXwXwXwXwXwXwXwXwXwXwXwXwXwXwXwXwXwXwXwXwXwXwXwXwXwXwXwXwXwXwXwXwXwXwXwXwXwXwXwXwXwX"
};
