/* XPM */
static char *result[] = {
/* columns rows colors chars-per-pixel */
"17 16 7 1 ",
"  c #181425",
". c #3F2832",
"X c #E4A672",
"o c #FEE761",
"O c #EAD4AA",
"+ c white",
"@ c None",
/* pixels */
"@@@@@@@XXXX@@@@@@",
"@@@@@XXOooOXX@@@@",
"@@@@XOooooooOX@@@",
"@@@XOooX ooooOX@@",
"@@@Xooo+.ooooOX@@",
"@@XOoooooooOXXX@@",
"@@XoooooooOXXXX@@",
"@@XoooooooOX@@@@@",
"@@XOoooooooOXXX@@",
"@@XXoooooooooOX@@",
"@@@XOooooooooOX@@",
"@@@XXOooooooOXX@@",
"@@@@XXXOooOXXX@@@",
"@@@@@XXXXXXXX@@@@",
"@@@@@@@XXXX@@@@@@",
"@@@@@@@@@@@@@@@@@"
};
